<svg width="52" height="52" viewBox="0 0 52 52" fill="white" xmlns="http://www.w3.org/2000/svg">
<circle cx="26" cy="26" r="26" fill="#1A6DFF"/>
<path d="M20.5833 13H17.3333C16.1841 13 15.0819 13.4565 14.2692 14.2692C13.4565 15.0819 13 16.1841 13 17.3333V20.5833C13 21.7326 13.4565 22.8348 14.2692 23.6475C15.0819 24.4601 16.1841 24.9167 17.3333 24.9167H20.5833C21.7326 24.9167 22.8348 24.4601 23.6475 23.6475C24.4601 22.8348 24.9167 21.7326 24.9167 20.5833V17.3333C24.9167 16.1841 24.4601 15.0819 23.6475 14.2692C22.8348 13.4565 21.7326 13 20.5833 13V13ZM22.75 20.5833C22.75 21.158 22.5217 21.7091 22.1154 22.1154C21.7091 22.5217 21.158 22.75 20.5833 22.75H17.3333C16.7587 22.75 16.2076 22.5217 15.8013 22.1154C15.3949 21.7091 15.1667 21.158 15.1667 20.5833V17.3333C15.1667 16.7587 15.3949 16.2076 15.8013 15.8013C16.2076 15.3949 16.7587 15.1667 17.3333 15.1667H20.5833C21.158 15.1667 21.7091 15.3949 22.1154 15.8013C22.5217 16.2076 22.75 16.7587 22.75 17.3333V20.5833Z" fill="white"/>
<path d="M34.6663 13H31.4163C30.2671 13 29.1649 13.4565 28.3522 14.2692C27.5396 15.0819 27.083 16.1841 27.083 17.3333V20.5833C27.083 21.7326 27.5396 22.8348 28.3522 23.6475C29.1649 24.4601 30.2671 24.9167 31.4163 24.9167H34.6663C35.8156 24.9167 36.9178 24.4601 37.7304 23.6475C38.5431 22.8348 38.9996 21.7326 38.9996 20.5833V17.3333C38.9996 16.1841 38.5431 15.0819 37.7304 14.2692C36.9178 13.4565 35.8156 13 34.6663 13V13ZM36.833 20.5833C36.833 21.158 36.6047 21.7091 36.1984 22.1154C35.7921 22.5217 35.241 22.75 34.6663 22.75H31.4163C30.8417 22.75 30.2906 22.5217 29.8843 22.1154C29.4779 21.7091 29.2497 21.158 29.2497 20.5833V17.3333C29.2497 16.7587 29.4779 16.2076 29.8843 15.8013C30.2906 15.3949 30.8417 15.1667 31.4163 15.1667H34.6663C35.241 15.1667 35.7921 15.3949 36.1984 15.8013C36.6047 16.2076 36.833 16.7587 36.833 17.3333V20.5833Z" fill="white"/>
<path d="M20.5833 27.0833H17.3333C16.1841 27.0833 15.0819 27.5399 14.2692 28.3525C13.4565 29.1652 13 30.2674 13 31.4166V34.6667C13 35.8159 13.4565 36.9181 14.2692 37.7308C15.0819 38.5434 16.1841 39 17.3333 39H20.5833C21.7326 39 22.8348 38.5434 23.6475 37.7308C24.4601 36.9181 24.9167 35.8159 24.9167 34.6667V31.4166C24.9167 30.2674 24.4601 29.1652 23.6475 28.3525C22.8348 27.5399 21.7326 27.0833 20.5833 27.0833V27.0833ZM22.75 34.6667C22.75 35.2413 22.5217 35.7924 22.1154 36.1987C21.7091 36.605 21.158 36.8333 20.5833 36.8333H17.3333C16.7587 36.8333 16.2076 36.605 15.8013 36.1987C15.3949 35.7924 15.1667 35.2413 15.1667 34.6667V31.4166C15.1667 30.842 15.3949 30.2909 15.8013 29.8846C16.2076 29.4783 16.7587 29.25 17.3333 29.25H20.5833C21.158 29.25 21.7091 29.4783 22.1154 29.8846C22.5217 30.2909 22.75 30.842 22.75 31.4166V34.6667Z" fill="white"/>
<path d="M34.6663 27.0833H31.4163C30.2671 27.0833 29.1649 27.5399 28.3522 28.3525C27.5396 29.1652 27.083 30.2674 27.083 31.4166V34.6667C27.083 35.8159 27.5396 36.9181 28.3522 37.7308C29.1649 38.5434 30.2671 39 31.4163 39H34.6663C35.8156 39 36.9178 38.5434 37.7304 37.7308C38.5431 36.9181 38.9996 35.8159 38.9996 34.6667V31.4166C38.9996 30.2674 38.5431 29.1652 37.7304 28.3525C36.9178 27.5399 35.8156 27.0833 34.6663 27.0833V27.0833ZM36.833 34.6667C36.833 35.2413 36.6047 35.7924 36.1984 36.1987C35.7921 36.605 35.241 36.8333 34.6663 36.8333H31.4163C30.8417 36.8333 30.2906 36.605 29.8843 36.1987C29.4779 35.7924 29.2497 35.2413 29.2497 34.6667V31.4166C29.2497 30.842 29.4779 30.2909 29.8843 29.8846C30.2906 29.4783 30.8417 29.25 31.4163 29.25H34.6663C35.241 29.25 35.7921 29.4783 36.1984 29.8846C36.6047 30.2909 36.833 30.842 36.833 31.4166V34.6667Z"/>
</svg>