<svg width="53" height="52" viewBox="0 0 53 52" fill="white" xmlns="http://www.w3.org/2000/svg">
<path d="M32.1331 0H19.1331C16.261 0.00344036 13.5075 1.14591 11.4766 3.17681C9.44572 5.20771 8.30325 7.96121 8.2998 10.8333V41.1667C8.30325 44.0388 9.44572 46.7923 11.4766 48.8232C13.5075 50.8541 16.261 51.9966 19.1331 52H32.1331C35.0053 51.9966 37.7588 50.8541 39.7897 48.8232C41.8206 46.7923 42.963 44.0388 42.9665 41.1667V10.8333C42.963 7.96121 41.8206 5.20771 39.7897 3.17681C37.7588 1.14591 35.0053 0.00344036 32.1331 0V0ZM19.1331 4.33333H32.1331C33.857 4.33333 35.5103 5.01815 36.7293 6.23714C37.9483 7.45613 38.6331 9.10943 38.6331 10.8333V34.6667H12.6331V10.8333C12.6331 9.10943 13.318 7.45613 14.5369 6.23714C15.7559 5.01815 17.4092 4.33333 19.1331 4.33333ZM32.1331 47.6667H19.1331C17.4092 47.6667 15.7559 46.9818 14.5369 45.7629C13.318 44.5439 12.6331 42.8906 12.6331 41.1667V39H38.6331V41.1667C38.6331 42.8906 37.9483 44.5439 36.7293 45.7629C35.5103 46.9818 33.857 47.6667 32.1331 47.6667Z" fill="white"/>
<path d="M25.6336 45.4988C26.8302 45.4988 27.8003 44.5287 27.8003 43.3321C27.8003 42.1355 26.8302 41.1654 25.6336 41.1654C24.437 41.1654 23.4669 42.1355 23.4669 43.3321C23.4669 44.5287 24.437 45.4988 25.6336 45.4988Z"/>
</svg>