<svg width="53" height="52" viewBox="0 0 53 52" fill="white" xmlns="http://www.w3.org/2000/svg">
<path d="M50.5955 19.6032L34.1613 3.16685C32.1274 1.13883 29.3723 0 26.5 0C23.6277 0 20.8726 1.13883 18.8387 3.16685L2.40452 19.6032C1.79878 20.205 1.31853 20.9211 0.991604 21.71C0.664682 22.4989 0.497594 23.3448 0.500026 24.1987V45.4688C0.500026 47.1927 1.18484 48.846 2.40383 50.065C3.62282 51.284 5.27611 51.9688 7.00002 51.9688H46C47.7239 51.9688 49.3772 51.284 50.5962 50.065C51.8152 48.846 52.5 47.1927 52.5 45.4688V24.1987C52.5024 23.3448 52.3353 22.4989 52.0084 21.71C51.6815 20.9211 51.2012 20.205 50.5955 19.6032ZM33 47.6355H20V39.1118C20 37.3879 20.6848 35.7346 21.9038 34.5156C23.1228 33.2966 24.7761 32.6118 26.5 32.6118C28.2239 32.6118 29.8772 33.2966 31.0962 34.5156C32.3152 35.7346 33 37.3879 33 39.1118V47.6355ZM48.1666 45.4688C48.1666 46.0434 47.9384 46.5945 47.532 47.0009C47.1257 47.4072 46.5746 47.6355 46 47.6355H37.3333V39.1118C37.3333 36.2386 36.192 33.4831 34.1603 31.4515C32.1287 29.4199 29.3732 28.2785 26.5 28.2785C23.6268 28.2785 20.8713 29.4199 18.8397 31.4515C16.808 33.4831 15.6667 36.2386 15.6667 39.1118V47.6355H7.00002C6.42538 47.6355 5.87428 47.4072 5.46796 47.0009C5.06163 46.5945 4.83335 46.0434 4.83335 45.4688V24.1987C4.83536 23.6245 5.06343 23.0741 5.46819 22.6668L21.9023 6.23702C23.1237 5.02136 24.7768 4.33889 26.5 4.33889C28.2232 4.33889 29.8763 5.02136 31.0977 6.23702L47.5318 22.6733C47.935 23.079 48.1629 23.6267 48.1666 24.1987V45.4688Z"/>
</svg>