<svg width="57" height="45" viewBox="0 0 57 45" fill="none" xmlns="http://www.w3.org/2000/svg">
<path d="M1.0268 23.5276C1.64778 24.8631 3.23377 25.4423 4.56921 24.8213C5.90465 24.2003 6.48384 22.6143 5.86285 21.2789C5.24187 19.9434 3.65588 19.3642 2.32044 19.9852C0.984996 20.6062 0.405813 22.1922 1.0268 23.5276ZM42.8362 4.08617C43.4572 5.42161 45.0432 6.00079 46.3786 5.37981C47.7141 4.75882 48.2933 3.17283 47.6723 1.83739C47.0513 0.501949 45.4653 -0.0772345 44.1299 0.543748C42.7944 1.16473 42.2152 2.75072 42.8362 4.08617ZM3.65565 22.8566L45.4651 3.41516L45.0434 2.5084L3.234 21.9499L3.65565 22.8566Z" fill="white"/>
<path d="M55.2849 24.5337C49.8592 12.8655 36.0018 7.80501 24.3336 13.2307C12.6655 18.6565 7.60496 32.5138 13.0307 44.182" stroke="#1A6DFF" stroke-width="3"/>
</svg>
