<svg width="25" height="25" viewBox="0 0 25 25" fill="white" xmlns="http://www.w3.org/2000/svg">
<path fill-rule="evenodd" clip-rule="evenodd" d="M22.8816 5.29066C23.2074 6.15511 23.3803 7.06966 23.3926 7.99339C23.4606 9.15522 23.4609 9.53519 23.4633 12.4761L23.4634 12.5171C23.4634 15.4967 23.4475 15.8686 23.3951 17.0419C23.3768 17.9555 23.2048 18.8556 22.884 19.7093C22.6012 20.4383 22.1695 21.1003 21.6166 21.6532C21.0637 22.2061 20.4017 22.6378 19.6727 22.9206C18.8194 23.2409 17.9178 23.4137 17.0066 23.4317C15.8418 23.5 15.4601 23.5 12.4817 23.5C9.50332 23.5 9.13132 23.4841 7.9568 23.4317C7.04374 23.4016 6.1425 23.216 5.29188 22.8828C4.56261 22.6006 3.90023 22.1693 3.34708 21.6166C2.79392 21.0638 2.36214 20.4018 2.07933 19.6727C1.75856 18.8178 1.58659 17.9177 1.5683 17.0054C1.5 15.8394 1.5 15.4588 1.5 12.4805C1.5 9.5021 1.51586 9.1301 1.5683 7.95559C1.58553 7.04464 1.75836 6.14335 2.07933 5.29066C2.36167 4.56138 2.79312 3.89907 3.3461 3.3461C3.89907 2.79312 4.56138 2.36167 5.29066 2.07933C6.14362 1.75914 7.0447 1.58593 7.95558 1.56708C9.12035 1.5 9.5021 1.5 12.4805 1.5C15.4588 1.5 15.8308 1.51464 17.0041 1.56708C17.9154 1.58579 18.8169 1.759 19.6703 2.07933C20.3994 2.36186 21.0617 2.79339 21.6146 3.34634C22.1676 3.89929 22.5991 4.5615 22.8816 5.29066ZM6.83473 12.4744C6.83473 15.5893 9.35818 18.1128 12.4732 18.1128C13.9686 18.1128 15.4027 17.5187 16.4601 16.4613C17.5175 15.4039 18.1116 13.9698 18.1116 12.4744C18.1116 10.979 17.5175 9.54482 16.4601 8.48741C15.4027 7.43 13.9686 6.83595 12.4732 6.83595C9.35818 6.83595 6.83473 9.3594 6.83473 12.4744ZM17.8327 7.84241C17.9922 7.90843 18.1633 7.94233 18.336 7.94217C19.0617 7.94217 19.6495 7.3543 19.6495 6.62739C19.6495 6.45481 19.6156 6.28392 19.5495 6.12448C19.4835 5.96504 19.3867 5.82017 19.2646 5.69813C19.1426 5.5761 18.9977 5.4793 18.8383 5.41326C18.6788 5.34721 18.508 5.31322 18.3354 5.31322C18.1628 5.31322 17.9919 5.34721 17.8325 5.41326C17.673 5.4793 17.5282 5.5761 17.4061 5.69813C17.2841 5.82017 17.1873 5.96504 17.1212 6.12448C17.0552 6.28392 17.0212 6.45481 17.0212 6.62739C17.021 6.8001 17.0549 6.97114 17.121 7.13072C17.187 7.29031 17.2838 7.43532 17.4059 7.55744C17.5281 7.67956 17.6731 7.7764 17.8327 7.84241ZM16.1473 12.4225C16.1473 14.4453 14.5075 16.0851 12.4847 16.0851C10.4619 16.0851 8.82208 14.4453 8.82208 12.4225C8.82208 10.3997 10.4619 8.75993 12.4847 8.75993C14.5075 8.75993 16.1473 10.3997 16.1473 12.4225Z"/>
</svg>
