<svg width="53" height="52" viewBox="0 0 53 52" fill="white" xmlns="http://www.w3.org/2000/svg">
<path d="M41.6667 8.66667H39.2833C38.7805 6.22139 37.4499 4.02425 35.516 2.44556C33.5821 0.866862 31.1631 0.00315147 28.6667 0L24.3333 0C21.8369 0.00315147 19.4179 0.866862 17.484 2.44556C15.5501 4.02425 14.2195 6.22139 13.7167 8.66667H11.3333C8.46121 8.67011 5.70771 9.81258 3.67681 11.8435C1.64591 13.8744 0.50344 16.6279 0.5 19.5L0.5 41.1667C0.50344 44.0388 1.64591 46.7923 3.67681 48.8232C5.70771 50.8541 8.46121 51.9966 11.3333 52H41.6667C44.5388 51.9966 47.2923 50.8541 49.3232 48.8232C51.3541 46.7923 52.4966 44.0388 52.5 41.1667V19.5C52.4966 16.6279 51.3541 13.8744 49.3232 11.8435C47.2923 9.81258 44.5388 8.67011 41.6667 8.66667ZM24.3333 4.33333H28.6667C30.0062 4.33889 31.3114 4.75818 32.4035 5.53386C33.4957 6.30953 34.3215 7.4037 34.768 8.66667H18.232C18.6785 7.4037 19.5043 6.30953 20.5965 5.53386C21.6886 4.75818 22.9938 4.33889 24.3333 4.33333ZM11.3333 13H41.6667C43.3906 13 45.0439 13.6848 46.2629 14.9038C47.4818 16.1228 48.1667 17.7761 48.1667 19.5V26H4.83333V19.5C4.83333 17.7761 5.51815 16.1228 6.73714 14.9038C7.95613 13.6848 9.60943 13 11.3333 13ZM41.6667 47.6667H11.3333C9.60943 47.6667 7.95613 46.9818 6.73714 45.7629C5.51815 44.5439 4.83333 42.8906 4.83333 41.1667V30.3333H24.3333V32.5C24.3333 33.0746 24.5616 33.6257 24.9679 34.0321C25.3743 34.4384 25.9254 34.6667 26.5 34.6667C27.0746 34.6667 27.6257 34.4384 28.0321 34.0321C28.4384 33.6257 28.6667 33.0746 28.6667 32.5V30.3333H48.1667V41.1667C48.1667 42.8906 47.4818 44.5439 46.2629 45.7629C45.0439 46.9818 43.3906 47.6667 41.6667 47.6667Z"/>
</svg>