<svg width="53" height="52" viewBox="0 0 53 52" fill="white" xmlns="http://www.w3.org/2000/svg">
<path d="M45.6166 9.0181L32.5121 1.45149C30.8583 0.500489 28.984 0 27.0763 0C25.1686 0 23.2942 0.500489 21.6405 1.45149L8.53588 9.0181C6.88531 9.97461 5.51462 11.3475 4.56075 12.9996C3.60687 14.6517 3.10322 16.5252 3.1001 18.4329V33.5661C3.10328 35.4741 3.60694 37.3479 4.56078 39.0003C5.51463 40.6527 6.88528 42.026 8.53588 42.9831L21.6405 50.5475C23.294 51.4991 25.1684 52 27.0763 52C28.9841 52 30.8585 51.4991 32.5121 50.5475L45.6166 42.9831C47.2673 42.026 48.6379 40.6527 49.5918 39.0003C50.5456 37.3479 51.0493 35.4741 51.0524 33.5661V18.4329C51.0493 16.5252 50.5457 14.6517 49.5918 12.9996C48.6379 11.3475 47.2672 9.97461 45.6166 9.0181ZM23.8148 5.21957C24.8064 4.64707 25.9313 4.34567 27.0763 4.34567C28.2213 4.34567 29.3461 4.64707 30.3377 5.21957L43.4423 12.784C43.7746 12.9941 44.0869 13.2342 44.3751 13.5015L30.9096 21.2747C29.7438 21.9468 28.4219 22.3005 27.0763 22.3005C25.7307 22.3005 24.4087 21.9468 23.243 21.2747L9.77742 13.5015C10.0657 13.2342 10.3779 12.9941 10.7102 12.784L23.8148 5.21957ZM10.7102 39.215C9.71916 38.6408 8.89629 37.8164 8.32392 36.8243C7.75155 35.8322 7.44975 34.7071 7.44873 33.5618V18.4329C7.46383 18.0412 7.51551 17.6517 7.6031 17.2696L21.0686 25.0428C22.2579 25.7193 23.5545 26.1863 24.902 26.4235V47.2295C24.5264 47.1145 24.1624 46.9645 23.8148 46.7816L10.7102 39.215ZM46.7038 33.5618C46.7028 34.7071 46.401 35.8322 45.8286 36.8243C45.2562 37.8164 44.4334 38.6408 43.4423 39.215L30.3377 46.7816C29.9901 46.9645 29.6262 47.1145 29.2506 47.2295V26.4235C30.598 26.1863 31.8947 25.7193 33.0839 25.0428L46.5494 17.2696C46.637 17.6517 46.6887 18.0412 46.7038 18.4329V33.5618Z"/>
</svg>