<svg width="26" height="25" viewBox="0 0 26 25" fill="white" xmlns="http://www.w3.org/2000/svg">
<path d="M25.1022 4.37236C24.1974 4.77326 23.2255 5.04414 22.2038 5.16658C23.258 4.53575 24.0468 3.5429 24.4228 2.37329C23.4323 2.96162 22.3483 3.37575 21.2178 3.59766C20.4576 2.78596 19.4507 2.24796 18.3533 2.06717C17.256 1.88638 16.1297 2.07293 15.1493 2.59785C14.1689 3.12277 13.3892 3.95669 12.9313 4.97014C12.4734 5.98359 12.3628 7.11988 12.6169 8.20257C10.6099 8.1018 8.64651 7.58015 6.85416 6.67147C5.06182 5.76279 3.48056 4.48739 2.21303 2.92805C1.77963 3.67567 1.53042 4.54248 1.53042 5.46563C1.52993 6.29667 1.73459 7.11499 2.12622 7.84798C2.51785 8.58096 3.08435 9.20594 3.77545 9.66748C2.97395 9.64198 2.19014 9.4254 1.48924 9.03579V9.1008C1.48916 10.2664 1.89235 11.3961 2.63038 12.2982C3.36841 13.2004 4.39584 13.8194 5.53832 14.0503C4.7948 14.2515 4.01527 14.2811 3.25862 14.137C3.58096 15.1399 4.20885 16.0169 5.05439 16.6452C5.89993 17.2735 6.92079 17.6217 7.97405 17.641C6.18608 19.0446 3.97795 19.806 1.70486 19.8026C1.30221 19.8027 0.899898 19.7792 0.5 19.7322C2.80731 21.2157 5.49318 22.003 8.23626 22C17.5219 22 22.5982 14.3092 22.5982 7.63915C22.5982 7.42245 22.5928 7.20358 22.583 6.98687C23.5704 6.27281 24.4227 5.38858 25.1 4.37562L25.1022 4.37236V4.37236Z"/>
</svg>
