<svg width="129" height="50" viewBox="0 0 129 50" fill="none" xmlns="http://www.w3.org/2000/svg">
<path fill-rule="evenodd" clip-rule="evenodd" d="M30.321 7.33265C41.4484 9.7143 50.7841 10.0454 52.8664 22.6246C54.5236 33.3471 49.7632 42.8505 38.1297 46.5625C27.0414 50.088 14.6054 46.0882 6.79673 38.0424C-0.747299 30.2612 -2.40447 19.3204 3.81932 11.1647C9.56881 3.61486 19.8705 5.10719 30.321 7.33265Z" fill="#1A6DFF"/>
<path d="M6.19247 44.4353H5.59814V43.9408H7.35799V44.4353H6.76366V46.3586H6.18524L6.19247 44.4353Z" fill="#060B1D"/>
<path d="M8.84158 45.984L8.22845 44.8272V46.3614H7.69775V43.9408H8.29063L8.99631 45.3029L9.70487 43.9408H10.2977V46.3586H9.7656V44.8272L9.15392 45.984H8.84158Z" fill="#060B1D"/>
<path d="M46.8219 5.06809C46.0845 3.65386 45.159 2.48256 44.0745 1.61638L44.0296 1.5701L43.9978 1.53974C43.911 1.45731 43.8243 1.37778 43.7346 1.30258L43.6768 1.25342C43.6059 1.19558 43.5322 1.13918 43.4657 1.08423L43.3818 1.02494C43.3095 0.971439 43.2372 0.920827 43.1649 0.871662L43.107 0.831172C43.0159 0.770438 42.9234 0.712596 42.8309 0.659092L42.7773 0.628725C42.7022 0.585344 42.627 0.544855 42.5518 0.507257L42.4679 0.463876C42.397 0.430617 42.3233 0.397358 42.2582 0.366991L42.1845 0.335178C42.0919 0.296134 42.0008 0.259983 41.9083 0.22817L41.8707 0.216602C41.7911 0.189127 41.7131 0.164544 41.635 0.142853L41.5496 0.121162C41.4846 0.10381 41.4181 0.0893492 41.353 0.0748888L41.2735 0.0589822C41.1852 0.0430757 41.097 0.0286152 41.0103 0.0199389C39.6018 -0.133342 38.552 0.607035 38.3423 1.8998C38.163 2.99446 36.8399 3.17377 36.7025 3.18968L20.7815 3.88956C14.1644 4.17877 10.9484 7.7375 9.41701 10.6701C9.36351 10.7742 9.31 10.8783 9.25939 10.9824L9.2218 11.0605C9.17118 11.1632 9.12346 11.2659 9.07719 11.3685C9.02947 11.4726 8.98464 11.5753 8.93982 11.6794L8.90945 11.7532C8.86607 11.8544 8.82413 11.9556 8.78509 12.0554C8.7446 12.1595 8.70556 12.2607 8.66796 12.362C8.65928 12.3851 8.65205 12.4068 8.64338 12.4285C8.56818 12.6309 8.49877 12.8305 8.43659 13.0257C8.43659 13.0459 8.42358 13.0662 8.41779 13.0864C8.35561 13.2816 8.29777 13.474 8.24571 13.6649C8.24571 13.6822 8.23559 13.6996 8.23125 13.7184C8.17919 13.9049 8.13147 14.0885 8.08665 14.265C8.08665 14.2809 8.07942 14.2968 8.07508 14.3141C8.03459 14.4891 7.99699 14.6597 7.96373 14.8231L7.95506 14.868C7.93915 14.9475 7.92324 15.0256 7.90878 15.1022C7.89432 15.1789 7.88131 15.2541 7.86829 15.3278C7.86829 15.3437 7.86829 15.3596 7.86829 15.3741C7.85673 15.4406 7.8466 15.5057 7.83648 15.5679C7.83648 15.5679 7.83648 15.578 7.83648 15.5823C7.20988 16.1374 6.72079 16.8304 6.40779 17.6068C5.26541 20.3716 6.06073 24.1545 7.00645 26.9916L7.36362 28.0704C6.82231 28.9089 6.55831 29.8964 6.60898 30.8931C6.65965 31.8899 7.02242 32.8455 7.64598 33.6248C8.26953 34.4041 9.12231 34.9676 10.0837 35.2356C11.0451 35.5037 12.0664 35.4627 13.0032 35.1184L13.0321 35.1069C14.0849 38.7538 15.7623 42.2026 18.2668 44.6595C20.501 47.297 23.6736 49.2651 28.4745 49.8739C29.0356 49.9448 29.4867 49.9766 29.8236 49.991C30.2054 50.0069 30.4252 49.9983 30.4556 49.991C36.0084 49.7597 40.335 47.9203 42.9668 44.6696C45.5986 41.4189 46.3505 36.978 45.1763 31.7853C44.2494 27.6915 44.4056 25.654 44.5386 23.8595C44.5806 23.3057 44.6196 22.7764 44.6283 22.2182C44.7122 22.2486 44.7975 22.2775 44.8813 22.3093C44.8961 22.315 44.9121 22.3162 44.9275 22.3129C44.9429 22.3095 44.957 22.3018 44.9681 22.2905C44.9745 22.2833 44.9794 22.2749 44.9825 22.2658C44.9856 22.2566 44.9867 22.2469 44.9859 22.2373C44.9851 22.2277 44.9823 22.2184 44.9778 22.2099C44.9732 22.2014 44.967 22.1939 44.9594 22.1879C44.851 22.0982 44.7396 22.0129 44.6268 21.9305C44.6268 21.9059 44.6268 21.8827 44.6268 21.8596C44.6131 19.8662 44.2509 17.8906 43.5568 16.0219C46.3043 14.6236 47.7228 12.6107 47.905 9.7851C48.0195 8.14018 47.6425 6.49835 46.8219 5.06809Z" fill="#060B1D"/>
<path d="M42.9827 31.1722C42.0139 26.8846 42.1773 24.743 42.3219 22.8545C42.3711 22.2139 42.4173 21.608 42.4115 20.9674C42.3991 19.3858 42.1505 17.815 41.6741 16.3068C38.3713 17.7297 33.5111 18.4296 26.9808 18.661C24.3779 18.7535 22.3534 18.7521 20.7483 18.6884C19.577 18.7651 16.4174 19.6515 16.7095 26.9931C16.7297 27.4978 16.7413 27.9504 16.7413 28.3596L16.8859 31.6523C16.8978 31.9259 16.8005 32.1931 16.6154 32.395C16.4303 32.5968 16.1726 32.717 15.899 32.7288C15.6253 32.7407 15.3582 32.6434 15.1563 32.4583C14.9544 32.2733 14.8343 32.0156 14.8224 31.7419L14.7602 30.2959C14.7602 30.2322 14.7486 30.1643 14.7443 30.0963V30.0645C14.7443 30.0168 14.7342 29.9691 14.7284 29.9199C14.7183 29.7681 14.711 29.6061 14.7024 29.4384C14.7024 29.4384 14.7024 29.4297 14.7024 29.4239C14.4919 28.8508 14.1376 28.3415 13.6735 27.9449C13.2094 27.5482 12.6511 27.2776 12.0523 27.1589C11.4534 27.0403 10.8341 27.0777 10.2539 27.2674C9.67362 27.4572 9.15191 27.7929 8.73886 28.2425C8.46967 28.5378 8.25081 28.8754 8.09103 29.2417V29.2547C8.0295 29.3957 7.97732 29.5406 7.93486 29.6885C7.93551 29.6957 7.93551 29.703 7.93486 29.7102C7.91606 29.7796 7.8987 29.8548 7.88424 29.9184V29.9372C7.86978 30.0124 7.85677 30.0819 7.8452 30.1643C7.8452 30.1643 7.8452 30.1758 7.8452 30.1816C7.83508 30.2496 7.82929 30.3176 7.82351 30.3855C7.82351 30.4 7.82351 30.4159 7.82351 30.4303C7.81339 30.5791 7.81339 30.7284 7.82351 30.8772V30.9307C7.82351 30.9914 7.83363 31.0522 7.84231 31.1129C7.84231 31.1288 7.84231 31.1433 7.84231 31.1592C7.85243 31.2315 7.86545 31.3038 7.88135 31.3775C7.88135 31.3934 7.88135 31.4093 7.89147 31.4238C7.90449 31.4831 7.91895 31.5424 7.9363 31.6016C7.9363 31.6219 7.94642 31.6421 7.95365 31.6624C7.9739 31.7347 7.99848 31.807 8.02451 31.8807C8.21977 32.4102 8.53793 32.8857 8.95283 33.2682C9.36773 33.6506 9.8675 33.9292 10.411 34.0808C10.9546 34.2324 11.5264 34.2528 12.0793 34.1403C12.6323 34.0279 13.1507 33.7857 13.5918 33.4338C13.6194 33.4123 13.6489 33.3934 13.68 33.3774L13.7292 33.3543L13.7523 33.3427C13.886 33.291 14.0337 33.2889 14.1688 33.3369C14.3038 33.3849 14.4172 33.4797 14.4883 33.6041C14.5593 33.7286 14.5834 33.8744 14.5561 34.0151C14.5288 34.1558 14.4519 34.282 14.3394 34.3708C14.27 34.4258 14.1948 34.4793 14.1254 34.5299C16.1499 40.9055 18.9624 46.5422 27.792 47.66C28.3696 47.742 28.9526 47.7802 29.5359 47.7743C34.8198 47.5545 38.8586 45.8105 41.2157 42.7319C43.4238 39.8369 44.0383 35.84 42.9827 31.1722Z" fill="#FBFBFD"/>
<path d="M43.6838 2.9641C43.6288 2.89469 43.571 2.82817 43.5131 2.76166L43.4596 2.70237C43.4177 2.65609 43.3758 2.61127 43.3324 2.56644L43.3078 2.54186C43.2965 2.52911 43.2844 2.51703 43.2716 2.5057C43.2283 2.46088 43.182 2.41605 43.1357 2.37411C43.1184 2.35821 43.1025 2.34086 43.0837 2.32495C43.0229 2.27 42.9622 2.21505 42.8986 2.16299C42.8291 2.10515 42.754 2.0502 42.686 1.9967H42.6788C42.6137 1.94753 42.5472 1.90126 42.4792 1.85209L42.4619 1.83908L42.4459 1.82895L42.2608 1.71327L42.2392 1.70026H42.2305C42.1611 1.65977 42.0859 1.62072 42.0194 1.58313L41.9095 1.52962L41.8892 1.5195L41.8574 1.50504L41.7547 1.46021L41.6926 1.43418L41.5957 1.39659L41.5002 1.36333L41.4496 1.34597L41.3817 1.32573L41.2804 1.29681L41.2125 1.26933H41.1922L41.1214 1.25487H41.104L41.0491 1.24475C40.9956 1.23607 40.9421 1.2274 40.8886 1.22161C40.3477 1.16233 39.6739 1.26933 39.535 2.10949C39.2646 3.7522 37.6335 4.32628 36.8078 4.40003H36.7803L20.8333 5.08979C15.9963 5.30092 12.52 7.35286 10.5013 11.1878C10.4275 11.3324 10.3567 11.4669 10.2916 11.6057L10.267 11.6693C10.2626 11.6777 10.2587 11.6864 10.2555 11.6953C10.1933 11.8255 10.134 11.9556 10.079 12.0843C10.0675 12.1089 10.0574 12.1335 10.0472 12.1595C9.99373 12.2839 9.94167 12.4097 9.89395 12.5341C9.88527 12.5543 9.8766 12.5745 9.86937 12.5948V12.602C9.81731 12.736 9.76911 12.8691 9.72476 13.0011C9.72476 13.0156 9.71464 13.0286 9.7103 13.0416V13.0633C9.66547 13.1891 9.62354 13.3149 9.5845 13.4378C9.58006 13.4545 9.57475 13.4709 9.56859 13.487C9.5281 13.6157 9.4905 13.7429 9.45435 13.8688L9.44134 13.9136C9.36614 14.1797 9.29673 14.4371 9.24467 14.6814V14.6916C9.47452 14.5867 9.71012 14.495 9.95035 14.4168C10.1005 14.3715 10.2625 14.3868 10.4016 14.4594C10.5406 14.5321 10.6457 14.6563 10.6943 14.8055C10.7429 14.9546 10.7311 15.1169 10.6615 15.2575C10.5919 15.3981 10.4701 15.5059 10.322 15.5577C8.95691 16.0031 8.04301 16.823 7.52966 18.0637C6.47694 20.6073 7.36047 24.3193 8.30041 27.0119C9.19677 26.2562 10.3399 25.857 11.5118 25.8903C12.6838 25.9237 13.8024 26.3873 14.6543 27.1926C14.556 24.2904 14.1497 19.3594 13.2083 17.5041C13.175 17.4376 13.1403 17.374 13.1042 17.3161C13.0868 17.2872 13.0695 17.2597 13.0521 17.2337L13.0015 17.1614L12.9928 17.1498L12.9451 17.0891L12.9292 17.0703L12.8902 17.024L12.8612 16.9966L12.8323 16.9662L12.773 16.9156C12.7032 16.8794 12.6411 16.8298 12.5904 16.7697C12.5396 16.7095 12.5013 16.6399 12.4774 16.5649C12.4293 16.4135 12.4433 16.2491 12.5164 16.108C12.5894 15.9668 12.7156 15.8605 12.867 15.8124C13.0185 15.7642 13.1828 15.7782 13.324 15.8513C13.8066 16.0975 14.3141 16.2915 14.838 16.4297L14.9826 16.4659H15.0043C15.1026 16.4904 15.2038 16.5136 15.3108 16.5367H15.3354L15.493 16.5685L15.6666 16.6003H15.6912L15.8502 16.6278H15.8748L16.0628 16.6567H16.0787L16.2566 16.6813H16.2942C16.4258 16.6987 16.5646 16.7146 16.7077 16.7305H16.7511C16.8191 16.7392 16.8957 16.7449 16.9579 16.7522H16.9709L17.2037 16.7739H17.25L17.4568 16.7912H17.4973L17.7474 16.8086H17.7879L18.0121 16.8216H18.0714L18.3447 16.8346H18.3548L18.6266 16.8462H18.6946L18.9722 16.8548H18.9896H19.299H19.3699H19.6418H19.6996H20.0307H20.0987H20.3879H21.3047H21.672H21.6923H22.0928H22.1998H22.5498H22.6264L23.0602 16.8433H23.1629L23.5244 16.8332H23.6386L24.0985 16.8187H24.1766L24.5829 16.8028H24.7188L25.2148 16.7825C31.9925 16.4933 36.844 15.6257 40.047 14.1319C40.4547 13.9391 40.837 13.7386 41.1937 13.5304L41.2125 13.5188L41.4221 13.3916C41.4626 13.367 41.5017 13.3409 41.5407 13.3149L41.6578 13.2397L41.775 13.1602C41.8126 13.1356 41.8487 13.1096 41.8849 13.0836C41.921 13.0575 41.9615 13.03 41.9991 13.0026L42.1061 12.9245L42.216 12.8421L42.3187 12.7611L42.4228 12.6772L42.524 12.5933L42.6238 12.5095L42.7294 12.4155L42.832 12.3215C42.8855 12.2723 42.939 12.2217 42.9897 12.1769L43.0721 12.0945C43.1039 12.0612 43.1357 12.0294 43.1661 11.9961C43.1964 11.9629 43.221 11.9383 43.2485 11.9094L43.3353 11.8125L43.4148 11.7228L43.4972 11.6245C43.5218 11.5941 43.5478 11.5638 43.571 11.5334L43.6519 11.4307L43.7214 11.3396L43.8009 11.2312L43.8616 11.1444C43.8934 11.0996 43.9224 11.0533 43.9527 11.0085L43.9961 10.9434C44.038 10.8783 44.0785 10.8118 44.1176 10.7453L44.1624 10.6643C44.187 10.6224 44.2116 10.579 44.2347 10.5356C44.2578 10.4922 44.268 10.4749 44.2839 10.4445L44.3461 10.323C44.362 10.2912 44.3764 10.2594 44.3909 10.2276C44.4053 10.1958 44.4299 10.1452 44.4487 10.1032C44.4675 10.0613 44.4776 10.0396 44.4907 10.0078C44.5037 9.97599 44.5268 9.92249 44.5442 9.87911C44.5615 9.83572 44.5702 9.81693 44.5818 9.78511C44.5933 9.7533 44.6179 9.69112 44.6353 9.64051L44.6656 9.55664C44.6888 9.49156 44.709 9.42649 44.7293 9.36142C44.7338 9.35008 44.7376 9.33849 44.7408 9.32672C44.7654 9.25008 44.7871 9.17199 44.8073 9.0939C44.8146 9.06787 44.8218 9.0404 44.8276 9.01437C44.842 8.96087 44.8551 8.90736 44.8681 8.85386C44.8753 8.82349 44.8825 8.79168 44.8883 8.75987C44.8941 8.72805 44.91 8.66009 44.9201 8.61526C44.9303 8.57043 44.9331 8.5473 44.9389 8.51404L44.965 8.36943C44.965 8.33617 44.9751 8.30147 44.9809 8.26821L45.0026 8.11204C45.0026 8.08022 45.0026 8.04696 45.0141 8.0137C45.0209 7.95683 45.0267 7.89898 45.0315 7.84018L45.0402 7.75775C45.0474 7.67099 45.0532 7.58423 45.0575 7.49602C45.1602 5.30381 44.3692 3.82016 43.6838 2.9641Z" fill="#FBFBFD"/>
<path d="M41.0131 25.2173C39.6019 24.7611 38.0682 24.8753 36.74 25.5354C36.6884 25.5555 36.6416 25.5862 36.6028 25.6257C36.5639 25.6652 36.5339 25.7125 36.5148 25.7645C36.4956 25.8165 36.4878 25.8719 36.4917 25.9272C36.4956 25.9824 36.5113 26.0362 36.5376 26.0849C36.5492 26.1052 36.5622 26.124 36.5737 26.1428C36.6347 26.2282 36.7246 26.2885 36.8267 26.3127C36.9288 26.3369 37.0362 26.3233 37.129 26.2744C37.1695 26.2527 37.2114 26.2353 37.2534 26.2151C37.2522 26.2923 37.2551 26.3695 37.2621 26.4464C37.372 27.6958 38.2425 28.6401 39.2055 28.5548C40.1686 28.4695 40.8627 27.3893 40.7543 26.1399C40.7543 26.0922 40.7441 26.0488 40.7384 26.0054L40.7832 26.0199C40.883 26.058 40.9933 26.0581 41.0931 26.0199C41.1929 25.9817 41.2751 25.9081 41.324 25.8131C41.3327 25.7928 41.3414 25.7711 41.3486 25.7495C41.4267 25.5528 41.2777 25.3055 41.0131 25.2173Z" fill="#060B1D"/>
<path d="M27.4754 26.4146C26.0518 25.9542 24.5045 26.0694 23.1648 26.7356C23.1128 26.7557 23.0656 26.7865 23.0265 26.8262C22.9873 26.8659 22.9571 26.9134 22.9378 26.9657C22.9185 27.018 22.9106 27.0738 22.9146 27.1294C22.9185 27.1849 22.9343 27.239 22.9609 27.288L22.9956 27.343C23.0569 27.4288 23.1474 27.4894 23.2501 27.5134C23.3529 27.5373 23.4608 27.523 23.5538 27.4731C23.6 27.45 23.6492 27.4283 23.6984 27.4066C23.6965 27.4862 23.6994 27.5659 23.707 27.6452C23.8155 28.8946 24.686 29.8389 25.6505 29.755C26.615 29.6711 27.3077 28.5895 27.1978 27.3401C27.1978 27.288 27.1877 27.2418 27.1819 27.1955L27.247 27.2143C27.3469 27.2534 27.4579 27.2541 27.5583 27.2161C27.6587 27.1782 27.7415 27.1044 27.7907 27.009L27.8138 26.9468C27.8933 26.7516 27.743 26.4985 27.4754 26.4146Z" fill="#060B1D"/>
<path d="M19.7533 24.448C20.3035 23.8316 20.9293 23.287 21.6158 22.827C22.3107 22.3546 23.0592 21.9662 23.8456 21.6702C24.2457 21.52 24.656 21.3982 25.0733 21.3058C25.4956 21.2082 25.925 21.1439 26.3574 21.1134L26.5193 21.1004H26.6827H27.011C27.2293 21.1004 27.4448 21.1004 27.6675 21.1279C27.8872 21.1375 28.1055 21.1675 28.3197 21.2176C28.4289 21.2479 28.5321 21.2968 28.6248 21.3622C28.7295 21.4283 28.8211 21.5131 28.8952 21.6123C28.9919 21.7457 29.0317 21.9119 29.0059 22.0746C28.9802 22.2372 28.8909 22.383 28.7578 22.48C28.7356 22.4958 28.7124 22.5103 28.6884 22.5233L28.6364 22.5508C28.4509 22.6474 28.2415 22.6881 28.0333 22.6679C27.9418 22.6598 27.8513 22.6428 27.7629 22.6173C27.6733 22.5985 27.5822 22.5841 27.4911 22.5667C27.3118 22.5277 27.1281 22.5132 26.9445 22.4872L26.6668 22.4655L26.5222 22.4554H26.3776C25.6215 22.4325 24.8654 22.5053 24.1276 22.6723C23.7494 22.7521 23.3765 22.8554 23.0112 22.9817C22.641 23.1047 22.2752 23.2449 21.9151 23.4054C21.1847 23.7273 20.4849 24.1145 19.8241 24.5623C19.8109 24.5712 19.7946 24.5745 19.7789 24.5715C19.7632 24.5686 19.7493 24.5595 19.7403 24.5464C19.7337 24.5395 19.7287 24.5312 19.7258 24.5222C19.7228 24.5131 19.722 24.5035 19.7232 24.4941C19.7245 24.4846 19.7278 24.4756 19.733 24.4676C19.7382 24.4597 19.7451 24.453 19.7533 24.448Z" fill="#060B1D"/>
<path d="M41.0797 20.668C40.5906 20.4978 40.0893 20.3649 39.5801 20.2704C39.1599 20.1923 38.7346 20.144 38.3076 20.1258C37.8736 20.102 37.4384 20.1131 37.0062 20.159L36.8428 20.1749L36.6822 20.1995L36.3569 20.2487C36.1443 20.2935 35.9231 20.3297 35.7163 20.3933C35.501 20.4397 35.2908 20.507 35.0887 20.5943C34.9869 20.6425 34.8936 20.707 34.8125 20.7852C34.7215 20.8674 34.646 20.9654 34.5898 21.0744C34.5777 21.1003 34.5671 21.1268 34.558 21.1539C34.5069 21.3106 34.5201 21.4811 34.5946 21.6281C34.6692 21.775 34.7991 21.8864 34.9557 21.9377L35.0077 21.9536C35.2072 22.0167 35.4208 22.0202 35.6223 21.9637C35.7111 21.9405 35.7973 21.9086 35.8797 21.8683C35.965 21.8321 36.0518 21.8032 36.1371 21.7699C36.3092 21.7005 36.487 21.6542 36.6634 21.5964L36.9324 21.527L37.0669 21.4923L37.2043 21.4662C37.9445 21.3108 38.7017 21.251 39.4572 21.2884C39.8291 21.3016 40.1999 21.3364 40.5678 21.3925L41.0797 20.668Z" fill="#060B1D"/>
<path d="M44.0916 22.2963C43.4432 21.7842 42.7323 21.3566 41.9761 21.0237L41.6579 20.8878L41.2241 21.5038C41.4054 21.5405 41.5861 21.581 41.7664 21.6253C42.5409 21.8145 43.2969 22.0729 44.0251 22.3975C44.0385 22.403 44.0535 22.4036 44.0672 22.399C44.081 22.3945 44.0927 22.3852 44.1002 22.3728C44.1077 22.3604 44.1105 22.3457 44.1082 22.3314C44.1058 22.3171 44.0984 22.3041 44.0873 22.2948L44.0916 22.2963Z" fill="#060B1D"/>
<path d="M32.5366 44.9139C32.4835 44.9147 32.4317 44.8978 32.3893 44.8658C32.3469 44.8338 32.3164 44.7886 32.3026 44.7373C32.2888 44.686 32.2926 44.6316 32.3132 44.5826C32.3339 44.5337 32.3702 44.493 32.4166 44.4671C32.9916 44.1425 33.6174 43.9176 34.2675 43.8019C34.8857 43.7315 35.5116 43.7806 36.1112 43.9465C36.1707 43.966 36.2202 44.0079 36.2493 44.0634C36.2783 44.1188 36.2845 44.1834 36.2666 44.2434C36.2486 44.3033 36.208 44.3539 36.1534 44.3844C36.0987 44.4148 36.0343 44.4227 35.9739 44.4064C35.4404 44.2601 34.8843 44.2145 34.3341 44.2719C33.7454 44.3793 33.1785 44.5836 32.6566 44.8764C32.6207 44.8993 32.5793 44.9123 32.5366 44.9139Z" fill="#060B1D"/>
<path d="M36.5058 32.2234C36.4885 32.115 36.4639 32.0036 36.435 31.8923C36.205 31.0029 35.7307 30.3855 35.0251 30.0558C33.4749 29.3328 31.3882 30.3117 31.3 30.3537C31.255 30.3725 31.2143 30.4002 31.1803 30.4352C31.1463 30.4702 31.1198 30.5118 31.1024 30.5573C31.0849 30.6029 31.077 30.6515 31.0789 30.7003C31.0808 30.749 31.0927 30.7968 31.1136 30.8409C31.1346 30.8849 31.1644 30.9242 31.201 30.9564C31.2376 30.9886 31.2805 31.0131 31.3268 31.0282C31.3732 31.0434 31.4222 31.049 31.4707 31.0446C31.5193 31.0403 31.5665 31.0261 31.6095 31.0029C31.6283 30.9943 33.4821 30.1353 34.7214 30.7137C35.2304 30.9509 35.5615 31.3963 35.7336 32.0759C35.9057 32.7556 35.8348 33.3065 35.5051 33.7606C34.7026 34.8697 32.6622 35.0114 32.6405 35.0128C32.5934 35.0156 32.5473 35.0276 32.5048 35.0483C32.4624 35.0689 32.4244 35.0977 32.3931 35.133C32.3618 35.1684 32.3378 35.2095 32.3224 35.2542C32.307 35.2988 32.3007 35.346 32.3036 35.3931C32.3064 35.44 32.3187 35.4857 32.3397 35.5276L32.3556 35.5522C32.3655 35.571 32.3777 35.5885 32.3918 35.6043C32.5682 35.8371 33.2291 36.495 34.7619 35.9282C36.9729 35.1068 36.5579 32.5039 36.5058 32.2234Z" fill="#060B1D"/>
<path d="M33.3604 40.6423C32.4178 40.6412 31.4798 40.5113 30.5724 40.2562C30.4837 40.2277 30.4095 40.1658 30.3655 40.0837C30.3215 40.0015 30.311 39.9055 30.3363 39.8158C30.3615 39.7261 30.4206 39.6497 30.5011 39.6027C30.5815 39.5556 30.6771 39.5416 30.7676 39.5636C32.7122 40.1138 34.7816 40.0292 36.6747 39.3221C36.7629 39.2939 36.8584 39.3008 36.9416 39.3412C37.0248 39.3816 37.0893 39.4524 37.1217 39.5391C37.154 39.6258 37.1518 39.7216 37.1154 39.8066C37.0791 39.8917 37.0114 39.9595 36.9264 39.9959C35.786 40.4231 34.5782 40.642 33.3604 40.6423Z" fill="#060B1D"/>
<path d="M14.5519 33.8965C14.5531 33.9873 14.5337 34.0771 14.4951 34.1593C14.4565 34.2414 14.3998 34.3137 14.3292 34.3708C14.2598 34.4258 14.1846 34.4793 14.1152 34.5299L14.1326 34.5834C14.1543 34.6542 14.1774 34.728 14.2006 34.7945C14.2107 34.8249 14.2193 34.8552 14.2295 34.8856C14.2526 34.955 14.2743 35.023 14.296 35.091L14.3292 35.1907L14.3943 35.3888L14.429 35.4915C14.4507 35.5551 14.4724 35.6202 14.4955 35.6838L14.5303 35.7879C14.5534 35.853 14.5751 35.9166 14.5968 35.9803C14.6098 36.015 14.6214 36.0497 14.6329 36.0829C14.6561 36.148 14.6777 36.2116 14.7009 36.2753C14.7139 36.3085 14.7255 36.3418 14.737 36.3765L14.8064 36.5674L14.8455 36.67C14.8677 36.7327 14.8908 36.7949 14.9149 36.8566C14.9265 36.8913 14.9395 36.926 14.9525 36.9607L15.0248 37.1472L15.0638 37.247C15.087 37.3092 15.1116 37.3714 15.1361 37.4335L15.1752 37.5319C15.2012 37.5941 15.2258 37.6577 15.2504 37.7199L15.2894 37.8139L15.3675 38.0018C15.3805 38.0337 15.395 38.064 15.408 38.0958C15.434 38.158 15.4601 38.2216 15.4875 38.2838L15.5266 38.372C15.5541 38.4357 15.5815 38.4993 15.6104 38.5629L15.6452 38.6381C15.6741 38.7061 15.7044 38.7726 15.7348 38.8391L15.7652 38.9027C15.797 38.9736 15.8302 39.0473 15.8635 39.1139C15.8678 39.1233 15.8726 39.1325 15.878 39.1413C16.0341 39.471 16.198 39.794 16.3696 40.1102L16.4058 40.1782C16.4361 40.2345 16.468 40.2895 16.4998 40.3459L16.5518 40.4399L16.6415 40.5946C16.6603 40.6293 16.6805 40.664 16.7008 40.6973C16.721 40.7305 16.7586 40.7956 16.789 40.8419L16.8541 40.9503L16.9408 41.0949L17.0102 41.2063C17.0391 41.2526 17.0695 41.2974 17.0984 41.3422L17.1722 41.4565L17.2604 41.5866L17.337 41.7008L17.4267 41.8295L17.5077 41.9438L17.5988 42.0696L17.6812 42.1824L17.7737 42.3053L17.8605 42.4181L17.9545 42.5367L18.0441 42.6494L18.141 42.7666L18.2321 42.8765L18.3319 42.9907C18.3623 43.0283 18.3941 43.0645 18.4259 43.1006L18.5271 43.2134L18.6255 43.3204L18.7281 43.4303C18.7614 43.465 18.7946 43.5012 18.8294 43.5359L18.9335 43.6429C18.9682 43.679 19.0029 43.7137 19.039 43.7484L19.146 43.8526L19.253 43.9552L19.3629 44.0579L19.4728 44.1591L19.5856 44.2589L19.6999 44.3572L19.8141 44.4541L19.9312 44.5524L20.0498 44.6464L20.1698 44.7419L20.2899 44.8344L20.4142 44.927L20.5371 45.0166L20.6644 45.1077L20.7902 45.1945L20.9218 45.2827L21.0505 45.3666L21.185 45.4533C21.2283 45.4808 21.2717 45.5083 21.3166 45.5343C21.3614 45.5603 21.4077 45.5907 21.4612 45.6182L21.5956 45.6977L21.7402 45.7787L21.8849 45.8553L22.0295 45.9334L22.1741 46.0086L22.3187 46.0838L22.4633 46.1547C22.5139 46.1807 22.5659 46.2038 22.618 46.2284L22.7626 46.2964L22.9217 46.3672L23.0663 46.4338L23.2282 46.5003L23.3815 46.5639L23.5493 46.629L23.704 46.6883L23.8775 46.7519L24.0351 46.8083L24.213 46.8676L24.3735 46.9211L24.5557 46.9775L24.7206 47.0281L24.9071 47.0816C24.9635 47.0975 25.0184 47.1148 25.0748 47.1293L25.2686 47.1814L25.4363 47.2247L25.6388 47.2739L25.808 47.3144L26.0177 47.3592L26.1868 47.3968L26.4052 47.4388L26.5744 47.472L26.8115 47.514L26.9706 47.5429L27.2396 47.5834L27.3755 47.6051C27.5129 47.6253 27.6502 47.6441 27.7905 47.6615C28.3681 47.7434 28.9511 47.7816 29.5344 47.7757C29.7036 47.7685 29.8714 47.7598 30.0391 47.7497L30.191 47.7381C30.3066 47.7309 30.4223 47.7236 30.5366 47.7135L30.7101 47.6976C30.8156 47.6889 30.9212 47.6802 31.0268 47.6687L31.2046 47.6499L31.5097 47.6152L31.6818 47.592C31.7845 47.579 31.8857 47.566 31.9869 47.5501L32.1503 47.5255L32.4555 47.4778L32.6102 47.4503L32.9182 47.3939L33.0628 47.3665C33.1669 47.3448 33.271 47.3245 33.3737 47.3014L33.5067 47.2725L33.822 47.2002L33.942 47.1698C34.049 47.1438 34.156 47.1163 34.2616 47.0874L34.3686 47.0584L34.6939 46.9659L34.7879 46.9384L35.1205 46.8329L35.1986 46.8083C35.3129 46.7707 35.4256 46.7316 35.5384 46.6912L35.6021 46.6695C35.7192 46.6261 35.8363 46.5827 35.9506 46.5379L35.9954 46.522C36.1169 46.4742 36.2383 46.4251 36.3569 46.3774L36.3815 46.3672C36.5087 46.3123 36.6345 46.2573 36.7589 46.2009C19.4164 49.2593 15.0783 35.8096 14.5519 33.8965Z" fill="#C6C6C6"/>
<path d="M12.2092 18.8778C11.2809 19.5098 10.098 18.2922 9.75093 18.6552C9.40388 19.0181 9.22457 24.2947 10.3655 24.1357C11.2794 24.0041 13.4976 23.1017 14.3161 22.7561C14.2583 22.2283 14.1932 21.702 14.118 21.1959C14.118 21.1959 14.118 21.1843 14.118 21.18C14.1006 21.0643 14.0833 20.9486 14.0645 20.8358L14.0558 20.7823C14.0399 20.6811 14.024 20.5798 14.0067 20.4801C14.0067 20.4584 14.0067 20.4352 13.9951 20.4135C13.9792 20.3167 13.9618 20.2212 13.9445 20.1243L13.9315 20.0593C13.9127 19.9595 13.8939 19.8597 13.8736 19.7628C13.8743 19.7493 13.8743 19.7358 13.8736 19.7223C13.8288 19.5011 13.7811 19.2885 13.729 19.0817C13.729 19.0615 13.7203 19.0441 13.7146 19.0253C13.6958 18.9458 13.6755 18.8677 13.6553 18.7925C13.6466 18.7607 13.6394 18.7318 13.6307 18.7014C13.6133 18.6392 13.596 18.5771 13.5772 18.5163C13.5685 18.4831 13.5584 18.4498 13.5483 18.418L13.4962 18.2546C13.4861 18.2213 13.4745 18.1895 13.4644 18.1577C13.4543 18.1259 13.4282 18.0565 13.4109 18.0131C13.3935 17.9697 13.3892 17.9538 13.3776 17.9249C13.3574 17.8728 13.3371 17.8237 13.3169 17.7803C13.3068 17.7572 13.2981 17.7326 13.288 17.7109C13.2576 17.6415 13.2272 17.5663 13.1954 17.5113C13.1636 17.4564 13.1275 17.3812 13.0913 17.3233C13.074 17.2944 13.0566 17.2669 13.0392 17.2409L12.9886 17.1686L12.98 17.157L12.9322 17.0963L12.9163 17.0775L12.8773 17.0312L12.8484 17.0038L12.8194 16.9734L12.7602 16.9228C12.7291 16.9056 12.6996 16.8857 12.6719 16.8635L12.6474 16.8433C12.6286 16.8259 12.6112 16.8085 12.5939 16.7897C12.5867 16.7819 12.5799 16.7737 12.5736 16.7652C12.5522 16.7396 12.5333 16.712 12.5172 16.6827L12.5085 16.6639C12.4969 16.6405 12.4868 16.6163 12.4782 16.5916C12.4737 16.5793 12.4698 16.5668 12.4666 16.554C12.4609 16.5341 12.4565 16.5138 12.4536 16.4933C12.4536 16.4933 12.4536 16.4788 12.4536 16.4716C12.5129 16.9445 13.058 18.3009 12.2092 18.8778Z" fill="#C6C6C6"/>
<path d="M43.6841 2.9641C43.6292 2.89469 43.5713 2.82817 43.5135 2.76166L43.46 2.70237C43.4181 2.65609 43.3761 2.61127 43.3327 2.56644L43.3082 2.54186C43.2968 2.52911 43.2848 2.51703 43.272 2.5057C43.2286 2.46088 43.1824 2.41605 43.1361 2.37411C43.1187 2.35821 43.1028 2.34086 43.084 2.32495C43.0233 2.27 42.9626 2.21505 42.8989 2.16299C42.8295 2.10515 42.7543 2.0502 42.6864 1.9967H42.6791C42.6141 1.94753 42.5475 1.90126 42.4796 1.85209L42.4622 1.83908L42.4463 1.82895L42.2612 1.71327L42.2395 1.70026H42.2309C42.1614 1.65977 42.0863 1.62072 42.0197 1.58313L41.9098 1.52962L41.8896 1.5195L41.8578 1.50504L41.7551 1.46021L41.6929 1.43418L41.596 1.39659L41.5006 1.36333L41.45 1.34597L41.382 1.32573L41.2808 1.29681L41.2128 1.26933H41.1926L41.1217 1.25487H41.1044L41.0494 1.24475C40.9959 1.23607 40.9424 1.2274 40.8889 1.22161C40.3481 1.16233 39.6742 1.26933 39.5354 2.10949C39.265 3.7522 37.6339 4.32628 36.8082 4.40003H36.7807L32.5655 4.58512C40.7009 4.49691 39.5759 12.7698 33.5054 13.5781C26.0669 14.5614 13.0279 15.7616 12.9961 15.7862C13.0384 15.7811 13.0811 15.7811 13.1233 15.7862L13.1754 15.7949L13.2159 15.805C13.2492 15.8148 13.2816 15.8273 13.3128 15.8426C13.7954 16.0889 14.3029 16.2828 14.8268 16.421L14.9714 16.4572H14.9931C15.0914 16.4818 15.1926 16.5049 15.2996 16.528H15.3242L15.4819 16.5599L15.6554 16.5917H15.68L15.839 16.6191H15.8636L16.0516 16.6481H16.0675L16.2454 16.6726H16.283C16.4146 16.69 16.5534 16.7059 16.6965 16.7218H16.7399C16.8079 16.7305 16.8845 16.7363 16.9467 16.7435H16.9597L17.1925 16.7652H17.2388L17.4456 16.7825H17.4861L17.7362 16.7999H17.7767L18.0009 16.8129H18.0602L18.3335 16.8259H18.3436L18.6154 16.8375H18.6834L18.961 16.8462H18.9784H19.2879H19.3587H19.6306H19.6884H20.0196H20.0875H20.3767H21.2935H21.6608H21.6811H22.0816H22.1886H22.5386H22.6152L23.049 16.8346H23.1517L23.5132 16.8245H23.6274L24.0873 16.81H24.1654L24.5717 16.7941H24.7076L25.2036 16.7739C31.9813 16.4847 36.8328 15.617 40.0358 14.1233C40.4435 13.9305 40.8258 13.7299 41.1825 13.5217L41.2013 13.5101L41.4109 13.3829C41.4514 13.3583 41.4905 13.3323 41.5295 13.3062L41.6467 13.231L41.7638 13.1515C41.8014 13.1269 41.8375 13.1009 41.8737 13.0749C41.9098 13.0488 41.9503 13.0214 41.9879 12.9939L42.0949 12.9158L42.2048 12.8334L42.3075 12.7524L42.4116 12.6685L42.5128 12.5847L42.6126 12.5008L42.7182 12.4068L42.8208 12.3128C42.8743 12.2636 42.9279 12.213 42.9785 12.1682L43.0609 12.0858C43.0927 12.0525 43.1245 12.0207 43.1549 11.9874C43.1853 11.9542 43.2098 11.9296 43.2373 11.9007L43.3241 11.8038L43.4036 11.7141L43.486 11.6158C43.5106 11.5854 43.5366 11.5551 43.5598 11.5247L43.6408 11.422L43.7102 11.3309L43.7897 11.2225L43.8504 11.1357C43.8822 11.0909 43.9112 11.0446 43.9415 10.9998L43.9849 10.9347C44.0269 10.8696 44.0673 10.8031 44.1064 10.7366L44.1512 10.6556C44.1758 10.6137 44.2004 10.5703 44.2235 10.5269C44.2467 10.4836 44.2568 10.4662 44.2727 10.4358L44.3349 10.3144C44.3508 10.2826 44.3652 10.2507 44.3797 10.2189C44.3941 10.1871 44.4187 10.1365 44.4375 10.0946C44.4563 10.0526 44.4664 10.0309 44.4795 9.99913C44.4925 9.96732 44.5156 9.91381 44.533 9.87043C44.5503 9.82705 44.559 9.80825 44.5706 9.77644C44.5821 9.74462 44.6067 9.68244 44.6241 9.63183L44.6544 9.54796C44.6776 9.48289 44.6978 9.41782 44.7181 9.35275C44.7226 9.3414 44.7264 9.32982 44.7296 9.31804C44.7542 9.2414 44.7759 9.16331 44.7962 9.08523C44.8034 9.0592 44.8106 9.03172 44.8164 9.00569C44.8309 8.95219 44.8439 8.89869 44.8569 8.84518C44.8641 8.81481 44.8713 8.783 44.8771 8.75119C44.8829 8.71938 44.8988 8.65141 44.9089 8.60658C44.9191 8.56176 44.922 8.53862 44.9277 8.50536L44.9538 8.36076C44.9538 8.3275 44.9639 8.29279 44.9697 8.25953L44.9914 8.10336C44.9914 8.07155 44.9914 8.03829 45.0029 8.00503C45.0097 7.94815 45.0155 7.89031 45.0203 7.8315L45.029 7.74908C45.0362 7.66231 45.042 7.57555 45.0463 7.48734C45.1606 5.30381 44.3696 3.82016 43.6841 2.9641Z" fill="#C6C6C6"/>
<path d="M14.2368 23.9072L14.2093 23.9158L14.1804 23.9245C14.1038 23.9462 14.0358 23.9722 13.9577 23.9997L13.9403 24.0069H13.9244L5.8526 26.9511C5.84313 27.5377 5.95591 28.1198 6.18375 28.6603C6.19676 28.6878 6.20977 28.7153 6.22424 28.7428L14.9005 25.3156C14.8965 25.3062 14.8931 25.2966 14.8904 25.2867C14.7312 24.77 14.7197 24.219 14.8571 23.696L14.2368 23.9072Z" fill="#1A6DFF"/>
<path d="M4.92822 29.2373C4.68794 28.6977 4.54125 28.1212 4.49441 27.5324L3.8191 27.7797C3.33034 27.9763 3.24068 28.199 3.20309 28.2728C3.08162 28.562 3.13512 29.0276 3.34769 29.5627C3.3824 29.6494 3.42288 29.7391 3.46771 29.8273L4.92822 29.2489V29.2373Z" fill="#FBFBFD"/>
<path d="M20.0193 22.4452L17.091 21.8032C16.9812 21.78 16.8692 21.7684 16.757 21.7685C16.573 21.769 16.3904 21.7993 16.2162 21.8582L13.8172 22.6781C13.7044 22.7099 13.5916 22.7489 13.4802 22.7923L3.32608 26.4884C1.63999 27.1565 1.48092 28.617 2.0738 30.0775C2.53075 31.2083 3.30294 32.0094 4.40772 32.0094C4.77422 32.0036 5.13631 31.9285 5.47491 31.7882L15.6262 28.0921L15.6797 28.0689L18.1249 27.1738C18.4233 27.0663 18.6841 26.8744 18.8754 26.6214L20.6787 24.2022C21.192 23.5124 20.8609 22.6303 20.0193 22.4452ZM3.20606 28.2728C3.23787 28.1991 3.33331 27.9764 3.82207 27.7797L4.49738 27.5324C4.54422 28.1212 4.69092 28.6978 4.93119 29.2373L4.93842 29.2518L3.47791 29.8302C3.43309 29.742 3.3926 29.6524 3.35789 29.5656C3.13809 29.0277 3.08459 28.5577 3.20606 28.2728ZM15.9486 24.9353C15.7896 24.4596 15.9226 23.9448 16.0397 23.6339L17.3658 23.6715C17.3571 23.9116 17.4036 24.1506 17.5017 24.3699C17.6211 24.609 17.7833 24.8242 17.9803 25.0048L16.8972 25.9288C16.5589 25.7393 16.1005 25.3894 15.9486 24.9353ZM13.9242 24.0128H13.9401L13.9574 24.0055C14.0283 23.9781 14.102 23.952 14.1801 23.9303L14.209 23.9217L14.2365 23.913L14.8627 23.699C14.7252 24.2219 14.7367 24.7729 14.8959 25.2896C14.8986 25.2995 14.902 25.3091 14.906 25.3185L6.22974 28.7457C6.21528 28.7182 6.20227 28.6907 6.18925 28.6633C5.96142 28.1227 5.84864 27.5406 5.85811 26.954L13.9242 24.0128Z" fill="#060B1D"/>
<path d="M17.4973 24.3685C17.3992 24.1491 17.3527 23.9102 17.3613 23.67L16.0353 23.6324C15.9182 23.9448 15.7851 24.4596 15.9442 24.9339C16.1033 25.4082 16.5544 25.7336 16.8928 25.9259L17.9759 25.0019C17.779 24.8217 17.6168 24.6071 17.4973 24.3685Z" fill="#FBFBFD"/>
<path d="M11.3534 35.4119C10.4829 35.4115 9.62912 35.1724 8.8849 34.7208C8.14067 34.2692 7.53445 33.6222 7.13209 32.8502C6.72973 32.0783 6.54662 31.2108 6.60265 30.342C6.65869 29.4733 6.95173 28.6365 7.44994 27.9227C7.94814 27.2088 8.63246 26.6451 9.42854 26.2928C10.2246 25.9405 11.102 25.8132 11.9654 25.9245C12.8288 26.0359 13.6452 26.3817 14.3258 26.9245C15.0064 27.4672 15.5253 28.1861 15.8261 29.0031C15.8532 29.0771 15.8655 29.1558 15.8623 29.2346C15.859 29.3134 15.8403 29.3908 15.8071 29.4624C15.7739 29.534 15.727 29.5983 15.669 29.6517C15.6109 29.7052 15.5429 29.7466 15.4689 29.7738C15.3948 29.801 15.3161 29.8133 15.2373 29.81C15.1585 29.8068 15.0811 29.788 15.0095 29.7548C14.938 29.7217 14.8736 29.6747 14.8202 29.6167C14.7668 29.5587 14.7253 29.4907 14.6981 29.4166C14.455 28.7557 14.0214 28.1817 13.4521 27.7672C12.8828 27.3526 12.2033 27.1162 11.4997 27.0877C10.796 27.0592 10.0997 27.2399 9.49876 27.607C8.8978 27.9742 8.41917 28.5112 8.12337 29.1503C7.82756 29.7894 7.72786 30.5019 7.83686 31.1976C7.94586 31.8934 8.25867 32.5412 8.73575 33.0592C9.21284 33.5772 9.83278 33.9422 10.5172 34.1079C11.2017 34.2737 11.9199 34.2328 12.5811 33.9905C12.9405 33.8591 13.276 33.6701 13.5746 33.4309C13.6362 33.3817 13.7069 33.3451 13.7826 33.3233C13.8584 33.3014 13.9377 33.2947 14.0161 33.3035C14.0944 33.3123 14.1703 33.3364 14.2393 33.3745C14.3083 33.4126 14.3691 33.464 14.4183 33.5256C14.4675 33.5872 14.5041 33.6579 14.5259 33.7337C14.5478 33.8094 14.5545 33.8887 14.5457 33.9671C14.5369 34.0454 14.5128 34.1213 14.4747 34.1903C14.4366 34.2593 14.3852 34.3202 14.3236 34.3693C13.4784 35.0429 12.4299 35.4104 11.3491 35.4119H11.3534Z" fill="#060B1D"/>
<path d="M10.1225 27.304C9.23577 27.63 8.5149 28.2949 8.11842 29.1524C7.72195 30.0098 7.68235 30.9897 8.00834 31.8764C8.33433 32.7631 8.9992 33.484 9.85669 33.8804C10.7142 34.2769 11.6941 34.3165 12.5807 33.9905C12.9401 33.8592 13.2756 33.6702 13.5742 33.4309C13.6779 33.3485 13.8059 33.3029 13.9383 33.301C14.0707 33.2992 14.2 33.3413 14.3059 33.4208L14.7397 30.0558C14.7129 29.7358 14.6533 29.4194 14.5618 29.1116C14.1785 28.3128 13.5116 27.6852 12.691 27.3511C11.8703 27.017 10.9548 27.0002 10.1225 27.304Z" fill="#FBFBFD"/>
<path d="M12.147 31.901C12.0616 31.87 11.9863 31.8166 11.9287 31.7463C11.8712 31.6761 11.8337 31.5916 11.8202 31.5018C11.8019 31.3244 11.7469 31.1528 11.6588 30.9977C11.5707 30.8426 11.4513 30.7075 11.3083 30.601C11.2034 30.5272 11.0842 30.4762 10.9585 30.4513C10.8327 30.4264 10.7031 30.4281 10.578 30.4564C10.5126 30.4735 10.4445 30.4773 10.3776 30.4676C10.3107 30.458 10.2464 30.4349 10.1886 30.3999C10.1308 30.3649 10.0806 30.3186 10.041 30.2639C10.0014 30.2091 9.9732 30.1469 9.95809 30.081C9.94298 30.0152 9.94125 29.9469 9.95302 29.8804C9.96478 29.8138 9.98979 29.7503 10.0266 29.6936C10.0634 29.6369 10.1112 29.5881 10.1671 29.5502C10.2231 29.5124 10.2861 29.4861 10.3524 29.473C10.6126 29.4119 10.8827 29.406 11.1452 29.4558C11.4078 29.5056 11.6569 29.61 11.8766 29.7623C12.1359 29.947 12.3537 30.184 12.5161 30.4579C12.6785 30.7319 12.7818 31.0367 12.8194 31.3529C12.8299 31.4188 12.8271 31.4862 12.8114 31.5511C12.7956 31.616 12.7672 31.6771 12.7276 31.7309C12.6881 31.7847 12.6382 31.8301 12.581 31.8645C12.5238 31.8989 12.4603 31.9216 12.3943 31.9313C12.3106 31.9426 12.2254 31.9321 12.147 31.901Z" fill="#060B1D"/>
<path d="M73.6105 23.098C72.8919 23.098 72.2479 22.9813 71.6785 22.748C71.1092 22.5147 70.6519 22.1693 70.3065 21.712C69.9705 21.2547 69.7932 20.704 69.7745 20.06H72.3225C72.3599 20.424 72.4859 20.704 72.7005 20.9C72.9152 21.0867 73.1952 21.18 73.5405 21.18C73.8952 21.18 74.1752 21.1007 74.3805 20.942C74.5859 20.774 74.6885 20.5453 74.6885 20.256C74.6885 20.0133 74.6045 19.8127 74.4365 19.654C74.2779 19.4953 74.0772 19.3647 73.8345 19.262C73.6012 19.1593 73.2652 19.0427 72.8265 18.912C72.1919 18.716 71.6739 18.52 71.2725 18.324C70.8712 18.128 70.5259 17.8387 70.2365 17.456C69.9472 17.0733 69.8025 16.574 69.8025 15.958C69.8025 15.0433 70.1339 14.3293 70.7965 13.816C71.4592 13.2933 72.3225 13.032 73.3865 13.032C74.4692 13.032 75.3419 13.2933 76.0045 13.816C76.6672 14.3293 77.0219 15.048 77.0685 15.972H74.4785C74.4599 15.6547 74.3432 15.4073 74.1285 15.23C73.9139 15.0433 73.6385 14.95 73.3025 14.95C73.0132 14.95 72.7799 15.0293 72.6025 15.188C72.4252 15.3373 72.3365 15.5567 72.3365 15.846C72.3365 16.1633 72.4859 16.4107 72.7845 16.588C73.0832 16.7653 73.5499 16.9567 74.1845 17.162C74.8192 17.3767 75.3325 17.582 75.7245 17.778C76.1259 17.974 76.4712 18.2587 76.7605 18.632C77.0499 19.0053 77.1945 19.486 77.1945 20.074C77.1945 20.634 77.0499 21.1427 76.7605 21.6C76.4805 22.0573 76.0699 22.4213 75.5285 22.692C74.9872 22.9627 74.3479 23.098 73.6105 23.098ZM78.1918 19.08C78.1918 18.2773 78.3411 17.5727 78.6398 16.966C78.9478 16.3593 79.3631 15.8927 79.8858 15.566C80.4085 15.2393 80.9918 15.076 81.6358 15.076C82.1865 15.076 82.6671 15.188 83.0778 15.412C83.4978 15.636 83.8198 15.93 84.0438 16.294V15.188H86.4378V23H84.0438V21.894C83.8105 22.258 83.4838 22.552 83.0638 22.776C82.6531 23 82.1725 23.112 81.6218 23.112C80.9871 23.112 80.4085 22.9487 79.8858 22.622C79.3631 22.286 78.9478 21.8147 78.6398 21.208C78.3411 20.592 78.1918 19.8827 78.1918 19.08ZM84.0438 19.094C84.0438 18.4967 83.8758 18.0253 83.5398 17.68C83.2131 17.3347 82.8118 17.162 82.3358 17.162C81.8598 17.162 81.4538 17.3347 81.1178 17.68C80.7911 18.016 80.6278 18.4827 80.6278 19.08C80.6278 19.6773 80.7911 20.1533 81.1178 20.508C81.4538 20.8533 81.8598 21.026 82.3358 21.026C82.8118 21.026 83.2131 20.8533 83.5398 20.508C83.8758 20.1627 84.0438 19.6913 84.0438 19.094ZM98.1378 15.104C99.1084 15.104 99.8784 15.398 100.448 15.986C101.026 16.574 101.316 17.3907 101.316 18.436V23H98.9358V18.758C98.9358 18.254 98.8004 17.8667 98.5298 17.596C98.2684 17.316 97.9044 17.176 97.4378 17.176C96.9711 17.176 96.6024 17.316 96.3318 17.596C96.0704 17.8667 95.9398 18.254 95.9398 18.758V23H93.5598V18.758C93.5598 18.254 93.4244 17.8667 93.1538 17.596C92.8924 17.316 92.5284 17.176 92.0618 17.176C91.5951 17.176 91.2264 17.316 90.9558 17.596C90.6944 17.8667 90.5638 18.254 90.5638 18.758V23H88.1698V15.188H90.5638V16.168C90.8064 15.8413 91.1238 15.5847 91.5158 15.398C91.9078 15.202 92.3511 15.104 92.8458 15.104C93.4338 15.104 93.9564 15.23 94.4138 15.482C94.8804 15.734 95.2444 16.0933 95.5058 16.56C95.7764 16.1307 96.1451 15.7807 96.6118 15.51C97.0784 15.2393 97.5871 15.104 98.1378 15.104ZM110.704 15.188V23H108.31V21.936C108.067 22.2813 107.736 22.5613 107.316 22.776C106.905 22.9813 106.448 23.084 105.944 23.084C105.347 23.084 104.819 22.9533 104.362 22.692C103.905 22.4213 103.55 22.034 103.298 21.53C103.046 21.026 102.92 20.4333 102.92 19.752V15.188H105.3V19.43C105.3 19.9527 105.435 20.3587 105.706 20.648C105.977 20.9373 106.341 21.082 106.798 21.082C107.265 21.082 107.633 20.9373 107.904 20.648C108.175 20.3587 108.31 19.9527 108.31 19.43V15.188H110.704ZM119.788 18.968C119.788 19.192 119.774 19.4253 119.746 19.668H114.328C114.365 20.1533 114.519 20.5267 114.79 20.788C115.07 21.04 115.41 21.166 115.812 21.166C116.409 21.166 116.824 20.914 117.058 20.41H119.606C119.475 20.9233 119.237 21.3853 118.892 21.796C118.556 22.2067 118.131 22.5287 117.618 22.762C117.104 22.9953 116.53 23.112 115.896 23.112C115.13 23.112 114.449 22.9487 113.852 22.622C113.254 22.2953 112.788 21.8287 112.452 21.222C112.116 20.6153 111.948 19.906 111.948 19.094C111.948 18.282 112.111 17.5727 112.438 16.966C112.774 16.3593 113.24 15.8927 113.838 15.566C114.435 15.2393 115.121 15.076 115.896 15.076C116.652 15.076 117.324 15.2347 117.912 15.552C118.5 15.8693 118.957 16.322 119.284 16.91C119.62 17.498 119.788 18.184 119.788 18.968ZM117.338 18.338C117.338 17.9273 117.198 17.6007 116.918 17.358C116.638 17.1153 116.288 16.994 115.868 16.994C115.466 16.994 115.126 17.1107 114.846 17.344C114.575 17.5773 114.407 17.9087 114.342 18.338H117.338ZM123.445 12.64V23H121.051V12.64H123.445ZM72.4065 29.172V35.052C72.4065 35.64 72.5512 36.0927 72.8405 36.41C73.1299 36.7273 73.5545 36.886 74.1145 36.886C74.6745 36.886 75.1039 36.7273 75.4025 36.41C75.7012 36.0927 75.8505 35.64 75.8505 35.052V29.172H78.2445V35.038C78.2445 35.9153 78.0579 36.6573 77.6845 37.264C77.3112 37.8707 76.8072 38.328 76.1725 38.636C75.5472 38.944 74.8472 39.098 74.0725 39.098C73.2979 39.098 72.6025 38.9487 71.9865 38.65C71.3799 38.342 70.8992 37.8847 70.5445 37.278C70.1899 36.662 70.0125 35.9153 70.0125 35.038V29.172H72.4065ZM82.3196 32.49C82.5996 32.0607 82.9496 31.7247 83.3696 31.482C83.7896 31.23 84.2563 31.104 84.7696 31.104V33.638H84.1116C83.5143 33.638 83.0663 33.7687 82.7676 34.03C82.469 34.282 82.3196 34.73 82.3196 35.374V39H79.9256V31.188H82.3196V32.49ZM88.3079 32.294C88.5319 31.93 88.8539 31.636 89.2739 31.412C89.6939 31.188 90.1746 31.076 90.7159 31.076C91.3599 31.076 91.9432 31.2393 92.4659 31.566C92.9886 31.8927 93.3992 32.3593 93.6979 32.966C94.0059 33.5727 94.1599 34.2773 94.1599 35.08C94.1599 35.8827 94.0059 36.592 93.6979 37.208C93.3992 37.8147 92.9886 38.286 92.4659 38.622C91.9432 38.9487 91.3599 39.112 90.7159 39.112C90.1652 39.112 89.6846 39.0047 89.2739 38.79C88.8632 38.566 88.5412 38.272 88.3079 37.908V39H85.9139V28.64H88.3079V32.294ZM91.7239 35.08C91.7239 34.4827 91.5559 34.016 91.2199 33.68C90.8932 33.3347 90.4872 33.162 90.0019 33.162C89.5259 33.162 89.1199 33.3347 88.7839 33.68C88.4572 34.0253 88.2939 34.4967 88.2939 35.094C88.2939 35.6913 88.4572 36.1627 88.7839 36.508C89.1199 36.8533 89.5259 37.026 90.0019 37.026C90.4779 37.026 90.8839 36.8533 91.2199 36.508C91.5559 36.1533 91.7239 35.6773 91.7239 35.08ZM96.6199 30.376C96.1999 30.376 95.8545 30.2547 95.5839 30.012C95.3225 29.76 95.1919 29.452 95.1919 29.088C95.1919 28.7147 95.3225 28.4067 95.5839 28.164C95.8545 27.912 96.1999 27.786 96.6199 27.786C97.0305 27.786 97.3665 27.912 97.6279 28.164C97.8985 28.4067 98.0339 28.7147 98.0339 29.088C98.0339 29.452 97.8985 29.76 97.6279 30.012C97.3665 30.2547 97.0305 30.376 96.6199 30.376ZM97.8099 31.188V39H95.4159V31.188H97.8099ZM104.305 31.104C105.219 31.104 105.947 31.4027 106.489 32C107.039 32.588 107.315 33.4 107.315 34.436V39H104.935V34.758C104.935 34.2353 104.799 33.8293 104.529 33.54C104.258 33.2507 103.894 33.106 103.437 33.106C102.979 33.106 102.615 33.2507 102.345 33.54C102.074 33.8293 101.939 34.2353 101.939 34.758V39H99.5448V31.188H101.939V32.224C102.181 31.8787 102.508 31.608 102.919 31.412C103.329 31.2067 103.791 31.104 104.305 31.104ZM108.502 35.08C108.502 34.2773 108.652 33.5727 108.95 32.966C109.258 32.3593 109.674 31.8927 110.196 31.566C110.719 31.2393 111.302 31.076 111.946 31.076C112.497 31.076 112.978 31.188 113.388 31.412C113.808 31.636 114.13 31.93 114.354 32.294V31.188H116.748V39H114.354V37.894C114.121 38.258 113.794 38.552 113.374 38.776C112.964 39 112.483 39.112 111.932 39.112C111.298 39.112 110.719 38.9487 110.196 38.622C109.674 38.286 109.258 37.8147 108.95 37.208C108.652 36.592 108.502 35.8827 108.502 35.08ZM114.354 35.094C114.354 34.4967 114.186 34.0253 113.85 33.68C113.524 33.3347 113.122 33.162 112.646 33.162C112.17 33.162 111.764 33.3347 111.428 33.68C111.102 34.016 110.938 34.4827 110.938 35.08C110.938 35.6773 111.102 36.1533 111.428 36.508C111.764 36.8533 112.17 37.026 112.646 37.026C113.122 37.026 113.524 36.8533 113.85 36.508C114.186 36.1627 114.354 35.6913 114.354 35.094Z" fill="white"/>
<path d="M119.6 39.112C119.18 39.112 118.835 38.9907 118.564 38.748C118.303 38.496 118.172 38.188 118.172 37.824C118.172 37.4507 118.303 37.138 118.564 36.886C118.835 36.634 119.18 36.508 119.6 36.508C120.011 36.508 120.347 36.634 120.608 36.886C120.879 37.138 121.014 37.4507 121.014 37.824C121.014 38.188 120.879 38.496 120.608 38.748C120.347 38.9907 120.011 39.112 119.6 39.112Z" fill="#1A6DFF"/>
</svg>
