<svg width="129" height="50" viewBox="0 0 129 50" fill="none" xmlns="http://www.w3.org/2000/svg">
<path fill-rule="evenodd" clip-rule="evenodd" d="M30.321 7.33265C41.4484 9.7143 50.7841 10.0454 52.8664 22.6246C54.5235 33.3471 49.7632 42.8505 38.1297 46.5625C27.0414 50.088 14.6054 46.0882 6.79673 38.0424C-0.747299 30.2612 -2.40447 19.3204 3.81932 11.1647C9.56881 3.61486 19.8705 5.10719 30.321 7.33265Z" fill="#1A6DFF"/>
<path d="M6.19247 44.4353H5.59814V43.9408H7.35799V44.4353H6.76366V46.3586H6.18524L6.19247 44.4353Z" fill="#060B1D"/>
<path d="M8.84158 45.9841L8.22845 44.8272V46.3615H7.69775V43.9408H8.29063L8.99631 45.303L9.70487 43.9408H10.2977V46.3586H9.7656V44.8272L9.15392 45.9841H8.84158Z" fill="#060B1D"/>
<path d="M46.8219 5.06809C46.0844 3.65386 45.159 2.48256 44.0744 1.61638L44.0296 1.5701L43.9978 1.53974C43.911 1.45731 43.8243 1.37778 43.7346 1.30258L43.6768 1.25342C43.6059 1.19558 43.5322 1.13918 43.4657 1.08423L43.3818 1.02494C43.3095 0.971439 43.2372 0.920827 43.1649 0.871661L43.107 0.831172C43.0159 0.770438 42.9234 0.712596 42.8308 0.659092L42.7773 0.628725C42.7021 0.585344 42.6269 0.544854 42.5518 0.507257L42.4679 0.463876C42.397 0.430617 42.3233 0.397357 42.2582 0.36699L42.1845 0.335177C42.0919 0.296134 42.0008 0.259983 41.9083 0.22817L41.8707 0.216601C41.7911 0.189127 41.713 0.164544 41.635 0.142853L41.5496 0.121162C41.4846 0.10381 41.4181 0.0893492 41.353 0.0748887L41.2734 0.0589822C41.1852 0.0430757 41.097 0.0286152 41.0103 0.0199389C39.6018 -0.133342 38.552 0.607035 38.3423 1.8998C38.163 2.99446 36.8399 3.17377 36.7025 3.18968L20.7815 3.88956C14.1644 4.17877 10.9484 7.7375 9.41701 10.6701C9.36351 10.7742 9.31 10.8783 9.25939 10.9824L9.22179 11.0605C9.17118 11.1632 9.12346 11.2659 9.07719 11.3685C9.02947 11.4726 8.98464 11.5753 8.93982 11.6794L8.90945 11.7532C8.86607 11.8544 8.82413 11.9556 8.78509 12.0554C8.7446 12.1595 8.70556 12.2607 8.66796 12.362C8.65928 12.3851 8.65205 12.4068 8.64338 12.4285C8.56818 12.6309 8.49877 12.8305 8.43659 13.0257C8.43659 13.0459 8.42358 13.0662 8.41779 13.0864C8.35561 13.2816 8.29777 13.474 8.24571 13.6648C8.24571 13.6822 8.23559 13.6996 8.23125 13.7184C8.17919 13.9049 8.13147 14.0885 8.08665 14.265C8.08665 14.2809 8.07942 14.2968 8.07508 14.3141C8.03459 14.4891 7.99699 14.6597 7.96373 14.8231L7.95506 14.868C7.93915 14.9475 7.92324 15.0256 7.90878 15.1022C7.89432 15.1789 7.88131 15.2541 7.86829 15.3278C7.86829 15.3437 7.86829 15.3596 7.86829 15.3741C7.85673 15.4406 7.8466 15.5057 7.83648 15.5678C7.83648 15.5678 7.83648 15.578 7.83648 15.5823C7.20988 16.1374 6.72079 16.8304 6.40779 17.6068C5.26541 20.3716 6.06073 24.1545 7.00645 26.9916L7.36362 28.0704C6.82231 28.9089 6.55831 29.8963 6.60898 30.8931C6.65965 31.8899 7.02242 32.8455 7.64597 33.6248C8.26953 34.4041 9.12231 34.9676 10.0837 35.2356C11.0451 35.5037 12.0664 35.4627 13.0032 35.1184L13.0321 35.1068C14.0849 38.7538 15.7623 42.2026 18.2668 44.6594C20.501 47.297 23.6736 49.2651 28.4745 49.8739C29.0355 49.9447 29.4867 49.9766 29.8236 49.991C30.2054 50.0069 30.4252 49.9983 30.4556 49.991C36.0084 49.7597 40.335 47.9203 42.9668 44.6696C45.5986 41.4188 46.3505 36.978 45.1763 31.7853C44.2494 27.6915 44.4056 25.654 44.5386 23.8595C44.5806 23.3056 44.6196 22.7764 44.6283 22.2182C44.7121 22.2486 44.7975 22.2775 44.8813 22.3093C44.8961 22.315 44.9121 22.3162 44.9275 22.3129C44.9429 22.3095 44.957 22.3018 44.9681 22.2905C44.9745 22.2833 44.9794 22.2749 44.9825 22.2658C44.9855 22.2566 44.9867 22.2469 44.9859 22.2373C44.9851 22.2277 44.9823 22.2184 44.9778 22.2099C44.9732 22.2013 44.967 22.1939 44.9594 22.1879C44.851 22.0982 44.7396 22.0129 44.6268 21.9305C44.6268 21.9059 44.6268 21.8827 44.6268 21.8596C44.6131 19.8662 44.2509 17.8906 43.5568 16.0219C46.3042 14.6236 47.7228 12.6107 47.905 9.7851C48.0194 8.14017 47.6425 6.49835 46.8219 5.06809Z" fill="#060B1D"/>
<path d="M42.9832 31.1722C42.0144 26.8847 42.1778 24.7431 42.3224 22.8545C42.3715 22.2139 42.4178 21.608 42.412 20.9674C42.3996 19.3858 42.151 17.815 41.6745 16.3068C38.3718 17.7297 33.5116 18.4296 26.9812 18.661C24.3784 18.7535 22.3539 18.7521 20.7488 18.6885C19.5775 18.7651 16.4179 19.6515 16.71 26.9931C16.7302 27.4978 16.7418 27.9504 16.7418 28.3596L16.8864 31.6523C16.8983 31.9259 16.801 32.1931 16.6159 32.395C16.4308 32.5969 16.1731 32.717 15.8995 32.7289C15.6258 32.7408 15.3587 32.6435 15.1568 32.4584C14.9549 32.2733 14.8348 32.0156 14.8229 31.7419L14.7607 30.2959C14.7607 30.2323 14.7491 30.1643 14.7448 30.0963V30.0645C14.7448 30.0168 14.7347 29.9691 14.7289 29.9199C14.7188 29.7681 14.7115 29.6061 14.7028 29.4384C14.7028 29.4384 14.7028 29.4297 14.7028 29.4239C14.4924 28.8509 14.1381 28.3415 13.674 27.9449C13.2099 27.5482 12.6516 27.2776 12.0528 27.159C11.4539 27.0403 10.8346 27.0777 10.2544 27.2674C9.67411 27.4572 9.1524 27.793 8.73935 28.2425C8.47016 28.5379 8.2513 28.8754 8.09152 29.2417V29.2547C8.02998 29.3958 7.97781 29.5407 7.93534 29.6886C7.936 29.6958 7.936 29.703 7.93534 29.7102C7.91655 29.7797 7.89919 29.8548 7.88473 29.9185V29.9373C7.87027 30.0125 7.85726 30.0819 7.84569 30.1643C7.84569 30.1643 7.84569 30.1759 7.84569 30.1817C7.83557 30.2496 7.82978 30.3176 7.824 30.3855C7.824 30.4 7.824 30.4159 7.824 30.4304C7.81388 30.5791 7.81388 30.7284 7.824 30.8772V30.9307C7.824 30.9914 7.83412 31.0522 7.8428 31.1129C7.8428 31.1288 7.8428 31.1433 7.8428 31.1592C7.85292 31.2315 7.86593 31.3038 7.88184 31.3775C7.88184 31.3934 7.88184 31.4093 7.89196 31.4238C7.90498 31.4831 7.91944 31.5424 7.93679 31.6017C7.93679 31.6219 7.94691 31.6422 7.95414 31.6624C7.97439 31.7347 7.99897 31.807 8.025 31.8808C8.22025 32.4102 8.53842 32.8857 8.95332 33.2682C9.36821 33.6507 9.86799 33.9292 10.4115 34.0808C10.9551 34.2324 11.5269 34.2528 12.0798 34.1404C12.6328 34.0279 13.1512 33.7857 13.5923 33.4338C13.6199 33.4124 13.6494 33.3935 13.6805 33.3774L13.7297 33.3543L13.7528 33.3427C13.8864 33.291 14.0342 33.2889 14.1693 33.3369C14.3043 33.3849 14.4177 33.4797 14.4887 33.6042C14.5598 33.7286 14.5839 33.8744 14.5566 34.0151C14.5292 34.1558 14.4524 34.282 14.3399 34.3709C14.2705 34.4258 14.1953 34.4793 14.1259 34.5299C16.1503 40.9055 18.9629 46.5422 27.7925 47.66C28.3701 47.742 28.953 47.7802 29.5364 47.7743V47.7743C34.8203 47.5545 38.8591 45.8105 41.2161 42.7319C43.4243 39.8369 44.0388 35.84 42.9832 31.1722Z" fill="#FBFBFD"/>
<path d="M43.6838 2.96407C43.6288 2.89466 43.571 2.82814 43.5131 2.76162L43.4596 2.70234C43.4177 2.65606 43.3757 2.61124 43.3324 2.56641L43.3078 2.54183C43.2964 2.52907 43.2844 2.517 43.2716 2.50567C43.2282 2.46085 43.182 2.41602 43.1357 2.37408C43.1183 2.35818 43.1024 2.34082 43.0836 2.32492C43.0229 2.26997 42.9622 2.21502 42.8985 2.16296C42.8291 2.10512 42.7539 2.05017 42.686 1.99666H42.6787C42.6137 1.9475 42.5472 1.90123 42.4792 1.85206L42.4618 1.83905L42.4459 1.82892L42.2608 1.71324L42.2391 1.70023H42.2305C42.1611 1.65974 42.0859 1.62069 42.0193 1.5831L41.9095 1.52959L41.8892 1.51947L41.8574 1.50501L41.7547 1.46018L41.6925 1.43415L41.5957 1.39655L41.5002 1.3633L41.4496 1.34594L41.3816 1.3257L41.2804 1.29678L41.2125 1.2693H41.1922L41.1214 1.25484H41.104L41.0491 1.24472C40.9955 1.23604 40.942 1.22737 40.8885 1.22158C40.3477 1.1623 39.6739 1.2693 39.535 2.10946C39.2646 3.75217 37.6335 4.32625 36.8078 4.4H36.7803L20.8333 5.08976C15.9963 5.30089 12.52 7.35283 10.5013 11.1877C10.4275 11.3324 10.3567 11.4668 10.2916 11.6057L10.267 11.6693C10.2626 11.6777 10.2587 11.6864 10.2555 11.6953C10.1933 11.8255 10.134 11.9556 10.079 12.0843C10.0675 12.1089 10.0574 12.1335 10.0472 12.1595C9.99373 12.2839 9.94167 12.4097 9.89395 12.534C9.88527 12.5543 9.8766 12.5745 9.86937 12.5948V12.602C9.81731 12.736 9.76911 12.869 9.72476 13.0011C9.72476 13.0156 9.71464 13.0286 9.7103 13.0416V13.0633C9.66547 13.1891 9.62354 13.3149 9.58449 13.4378C9.58006 13.4545 9.57475 13.4709 9.56859 13.487C9.5281 13.6157 9.4905 13.7429 9.45435 13.8687L9.44134 13.9135C9.36614 14.1796 9.29673 14.437 9.24467 14.6814V14.6915C9.47452 14.5867 9.71012 14.495 9.95034 14.4168C10.1005 14.3715 10.2625 14.3868 10.4016 14.4594C10.5406 14.5321 10.6457 14.6563 10.6943 14.8054C10.7429 14.9546 10.7311 15.1169 10.6615 15.2575C10.5919 15.3981 10.4701 15.5059 10.322 15.5577C8.95691 16.0031 8.04301 16.823 7.52966 18.0637C6.47694 20.6073 7.36047 24.3193 8.3004 27.0119C9.19677 26.2562 10.3399 25.857 11.5118 25.8903C12.6838 25.9236 13.8024 26.3872 14.6543 27.1926C14.556 24.2904 14.1497 19.3594 13.2083 17.5041C13.175 17.4376 13.1403 17.3739 13.1042 17.3161C13.0868 17.2872 13.0695 17.2597 13.0521 17.2337L13.0015 17.1614L12.9928 17.1498L12.9451 17.0891L12.9292 17.0703L12.8902 17.024L12.8612 16.9965L12.8323 16.9662L12.773 16.9155C12.7031 16.8794 12.6411 16.8298 12.5904 16.7696C12.5396 16.7095 12.5013 16.6399 12.4774 16.5649C12.4293 16.4134 12.4433 16.2491 12.5164 16.1079C12.5894 15.9668 12.7156 15.8605 12.867 15.8123C13.0185 15.7642 13.1828 15.7782 13.324 15.8513C13.8066 16.0975 14.3141 16.2914 14.838 16.4297V16.4297L14.9826 16.4658H15.0043C15.1026 16.4904 15.2038 16.5135 15.3108 16.5367H15.3354L15.493 16.5685L15.6666 16.6003H15.6912L15.8502 16.6278H15.8748L16.0628 16.6567H16.0787L16.2566 16.6813H16.2942C16.4257 16.6986 16.5646 16.7145 16.7077 16.7304H16.7511C16.8191 16.7391 16.8957 16.7449 16.9579 16.7521H16.9709L17.2037 16.7738H17.25L17.4568 16.7912H17.4973L17.7474 16.8085H17.7879L18.0121 16.8216H18.0713L18.3447 16.8346H18.3548L18.6266 16.8461H18.6946L18.9722 16.8548H18.9896H19.299H19.3699H19.6418H19.6996H20.0307H20.0987H20.3879H21.3047H21.672H21.6923H22.0928H22.1998H22.5498H22.6264L23.0602 16.8432H23.1629L23.5244 16.8331H23.6386L24.0985 16.8187H24.1766L24.5829 16.8028H24.7188L25.2148 16.7825C31.9925 16.4933 36.8439 15.6257 40.0469 14.1319C40.4547 13.9391 40.837 13.7386 41.1937 13.5303L41.2125 13.5188L41.4221 13.3915C41.4626 13.3669 41.5017 13.3409 41.5407 13.3149L41.6578 13.2397L41.775 13.1602C41.8126 13.1356 41.8487 13.1095 41.8849 13.0835C41.921 13.0575 41.9615 13.03 41.9991 13.0025L42.1061 12.9245L42.216 12.842L42.3187 12.761L42.4228 12.6772L42.524 12.5933L42.6238 12.5094L42.7294 12.4154L42.832 12.3214C42.8855 12.2723 42.939 12.2217 42.9896 12.1768L43.0721 12.0944C43.1039 12.0612 43.1357 12.0293 43.1661 11.9961C43.1964 11.9628 43.221 11.9382 43.2485 11.9093L43.3353 11.8124L43.4148 11.7228L43.4972 11.6245C43.5218 11.5941 43.5478 11.5637 43.571 11.5334L43.6519 11.4307L43.7213 11.3396L43.8009 11.2311L43.8616 11.1444C43.8934 11.0995 43.9224 11.0533 43.9527 11.0084L43.9961 10.9434C44.038 10.8783 44.0785 10.8118 44.1176 10.7453L44.1624 10.6643C44.187 10.6223 44.2116 10.579 44.2347 10.5356C44.2578 10.4922 44.268 10.4748 44.2839 10.4445L44.346 10.323C44.3619 10.2912 44.3764 10.2594 44.3909 10.2276C44.4053 10.1958 44.4299 10.1451 44.4487 10.1032C44.4675 10.0613 44.4776 10.0396 44.4906 10.0078C44.5037 9.97596 44.5268 9.92245 44.5441 9.87907C44.5615 9.83569 44.5702 9.81689 44.5817 9.78508C44.5933 9.75327 44.6179 9.69109 44.6353 9.64048L44.6656 9.5566C44.6888 9.49153 44.709 9.42646 44.7292 9.36139C44.7337 9.35005 44.7376 9.33846 44.7408 9.32668C44.7654 9.25004 44.7871 9.17196 44.8073 9.09387C44.8146 9.06784 44.8218 9.04037 44.8276 9.01434C44.842 8.96083 44.855 8.90733 44.8681 8.85383C44.8753 8.82346 44.8825 8.79165 44.8883 8.75983C44.8941 8.72802 44.91 8.66006 44.9201 8.61523C44.9302 8.5704 44.9331 8.54726 44.9389 8.514L44.9649 8.3694C44.9649 8.33614 44.9751 8.30144 44.9809 8.26818L45.0025 8.112C45.0025 8.08019 45.0025 8.04693 45.0141 8.01367C45.0209 7.95679 45.0266 7.89895 45.0315 7.84015L45.0401 7.75772C45.0474 7.67096 45.0532 7.5842 45.0575 7.49599C45.1602 5.30378 44.3692 3.82013 43.6838 2.96407Z" fill="#FBFBFD"/>
<path fill-rule="evenodd" clip-rule="evenodd" d="M23.8093 28.301C23.792 28.3113 23.7749 28.3217 23.7582 28.3322C23.6708 28.3913 23.5649 28.4165 23.4603 28.4032C23.3556 28.3898 23.2594 28.3388 23.1897 28.2596L23.1496 28.2085C23.1182 28.1624 23.097 28.1102 23.0874 28.0553C23.0778 28.0004 23.08 27.9441 23.0938 27.8901C23.1077 27.8362 23.1329 27.7858 23.1678 27.7423C23.2027 27.6989 23.2465 27.6634 23.2962 27.6382C24.5611 26.8391 26.0887 26.5669 27.5518 26.88C27.8265 26.9362 28.0018 27.1727 27.9426 27.375L27.9259 27.4392C27.8867 27.5391 27.8118 27.621 27.7158 27.6689C27.6198 27.7169 27.5093 27.7275 27.4059 27.6988L27.3924 27.6964C25.9694 27.3662 24.3768 27.8802 23.8093 28.301Z" fill="#060B1D"/>
<path fill-rule="evenodd" clip-rule="evenodd" d="M36.8133 26.5418C36.7951 26.55 36.7773 26.5583 36.7598 26.5668C36.6663 26.6157 36.5582 26.6289 36.4558 26.6038C36.3533 26.5788 36.2634 26.5173 36.203 26.4308L36.1689 26.3754C36.1429 26.3262 36.1277 26.2719 36.1243 26.2163C36.1209 26.1607 36.1294 26.105 36.1493 26.0529C36.1691 26.0008 36.1998 25.9536 36.2394 25.9143C36.279 25.8751 36.3264 25.8447 36.3786 25.8252C37.7253 25.1732 39.2738 25.0743 40.6925 25.5498C40.9591 25.6365 41.1068 25.8911 41.0252 26.0855L41.0014 26.1474C40.9512 26.2423 40.8677 26.3152 40.7668 26.3521C40.666 26.389 40.5551 26.3871 40.4556 26.347L40.4424 26.343C39.0649 25.8549 37.4238 26.1873 36.8133 26.5418Z" fill="#060B1D"/>
<path d="M19.7533 24.448C20.3035 23.8316 20.9293 23.2869 21.6158 22.827C22.3107 22.3545 23.0592 21.9662 23.8456 21.6701C24.2457 21.52 24.656 21.3982 25.0733 21.3057C25.4956 21.2081 25.925 21.1438 26.3574 21.1134L26.5193 21.1004H26.6827H27.011C27.2293 21.1004 27.4448 21.1004 27.6675 21.1279C27.8872 21.1374 28.1055 21.1675 28.3197 21.2175C28.4289 21.2478 28.5321 21.2968 28.6248 21.3621C28.7295 21.4283 28.8211 21.5131 28.8952 21.6123C28.9919 21.7456 29.0317 21.9119 29.0059 22.0745C28.9802 22.2372 28.8909 22.383 28.7578 22.4799C28.7356 22.4957 28.7124 22.5102 28.6884 22.5233L28.6363 22.5508C28.4509 22.6474 28.2414 22.6881 28.0333 22.6679C27.9418 22.6597 27.8512 22.6428 27.7629 22.6173C27.6733 22.5985 27.5822 22.584 27.4911 22.5667C27.3118 22.5277 27.1281 22.5132 26.9445 22.4872L26.6668 22.4655L26.5222 22.4553H26.3776C25.6215 22.4324 24.8654 22.5053 24.1276 22.6723C23.7494 22.752 23.3765 22.8554 23.0112 22.9817C22.641 23.1046 22.2752 23.2449 21.9151 23.4054C21.1847 23.7272 20.4849 24.1144 19.8241 24.5622V24.5622C19.8109 24.5712 19.7946 24.5745 19.7789 24.5715C19.7632 24.5685 19.7493 24.5595 19.7403 24.5463C19.7337 24.5395 19.7287 24.5312 19.7258 24.5221C19.7228 24.5131 19.722 24.5035 19.7232 24.4941C19.7245 24.4846 19.7278 24.4756 19.733 24.4676C19.7382 24.4596 19.7451 24.4529 19.7533 24.448V24.448Z" fill="#060B1D"/>
<path d="M41.0797 20.668C40.5906 20.4978 40.0893 20.3649 39.5801 20.2704C39.1599 20.1923 38.7346 20.144 38.3076 20.1258C37.8736 20.102 37.4384 20.1131 37.0062 20.159L36.8428 20.1749L36.6822 20.1995L36.3569 20.2487C36.1443 20.2935 35.9231 20.3297 35.7163 20.3933C35.501 20.4397 35.2908 20.507 35.0887 20.5943C34.9869 20.6425 34.8936 20.707 34.8125 20.7852C34.7215 20.8674 34.646 20.9654 34.5898 21.0744C34.5777 21.1003 34.5671 21.1268 34.558 21.1539C34.5069 21.3106 34.5201 21.4811 34.5946 21.6281C34.6692 21.775 34.7991 21.8864 34.9557 21.9377L35.0077 21.9536C35.2072 22.0167 35.4208 22.0202 35.6223 21.9637C35.7111 21.9405 35.7973 21.9086 35.8797 21.8683C35.965 21.8321 36.0518 21.8032 36.1371 21.7699C36.3092 21.7005 36.487 21.6542 36.6634 21.5964L36.9324 21.527L37.0669 21.4923L37.2043 21.4662C37.9445 21.3108 38.7017 21.251 39.4572 21.2884C39.8291 21.3016 40.1999 21.3364 40.5678 21.3925L41.0797 20.668Z" fill="#060B1D"/>
<path d="M44.0916 22.2963C43.4432 21.7842 42.7323 21.3566 41.9761 21.0237L41.6579 20.8878L41.2241 21.5038C41.4054 21.5405 41.5861 21.581 41.7664 21.6253C42.5409 21.8145 43.2969 22.0729 44.0251 22.3975V22.3975C44.0385 22.403 44.0535 22.4036 44.0672 22.399C44.081 22.3945 44.0927 22.3852 44.1002 22.3728C44.1077 22.3604 44.1105 22.3457 44.1082 22.3314C44.1058 22.3171 44.0984 22.3041 44.0873 22.2948L44.0916 22.2963Z" fill="#060B1D"/>
<path d="M32.5361 44.914C32.483 44.9148 32.4312 44.8978 32.3888 44.8658C32.3464 44.8338 32.3159 44.7886 32.3021 44.7373C32.2883 44.686 32.2921 44.6316 32.3127 44.5826C32.3334 44.5337 32.3697 44.4931 32.4161 44.4672C32.9911 44.1425 33.6169 43.9176 34.267 43.802C34.8852 43.7315 35.5111 43.7806 36.1108 43.9466C36.1702 43.966 36.2198 44.008 36.2488 44.0634C36.2778 44.1189 36.284 44.1835 36.2661 44.2434C36.2482 44.3034 36.2075 44.354 36.1529 44.3844C36.0982 44.4149 36.0338 44.4228 35.9734 44.4064C35.4399 44.2602 34.8838 44.2146 34.3336 44.2719C33.7449 44.3794 33.1781 44.5836 32.6562 44.8764C32.6202 44.8994 32.5788 44.9123 32.5361 44.914V44.914Z" fill="#060B1D"/>
<path d="M36.5058 32.2234C36.4885 32.115 36.4639 32.0036 36.4349 31.8923C36.205 31.0029 35.7307 30.3855 35.0251 30.0558C33.4749 29.3328 31.3882 30.3117 31.3 30.3537C31.255 30.3725 31.2143 30.4002 31.1803 30.4352C31.1463 30.4702 31.1198 30.5118 31.1024 30.5573C31.0849 30.6029 31.077 30.6515 31.0789 30.7003C31.0808 30.749 31.0927 30.7968 31.1136 30.8409C31.1346 30.8849 31.1644 30.9242 31.201 30.9564C31.2376 30.9886 31.2805 31.0131 31.3268 31.0282C31.3732 31.0434 31.4222 31.0489 31.4707 31.0446C31.5193 31.0403 31.5665 31.0261 31.6095 31.0029C31.6283 30.9943 33.4821 30.1353 34.7214 30.7137C35.2304 30.9509 35.5615 31.3963 35.7336 32.0759C35.9057 32.7556 35.8348 33.3065 35.5051 33.7606C34.7026 34.8697 32.6622 35.0114 32.6405 35.0128C32.5934 35.0156 32.5473 35.0276 32.5048 35.0483C32.4624 35.0689 32.4244 35.0977 32.3931 35.133C32.3618 35.1684 32.3378 35.2095 32.3224 35.2542C32.307 35.2988 32.3007 35.346 32.3036 35.3931C32.3063 35.44 32.3187 35.4857 32.3397 35.5276L32.3556 35.5522C32.3655 35.571 32.3776 35.5885 32.3918 35.6043C32.5682 35.8371 33.2291 36.495 34.7619 35.9282C36.9729 35.1068 36.5579 32.5039 36.5058 32.2234Z" fill="#060B1D"/>
<path d="M33.3599 40.6423C32.4173 40.6412 31.4793 40.5113 30.5719 40.2562C30.4832 40.2277 30.4091 40.1658 30.365 40.0837C30.321 40.0015 30.3105 39.9055 30.3358 39.8158C30.361 39.7261 30.4201 39.6497 30.5006 39.6027C30.581 39.5556 30.6766 39.5416 30.7671 39.5636C32.7117 40.1138 34.7811 40.0292 36.6743 39.3221C36.7624 39.2939 36.8579 39.3008 36.9411 39.3412C37.0244 39.3816 37.0888 39.4524 37.1212 39.5391C37.1535 39.6258 37.1513 39.7216 37.1149 39.8066C37.0786 39.8917 37.0109 39.9595 36.9259 39.9959C35.7855 40.4231 34.5777 40.642 33.3599 40.6423Z" fill="#060B1D"/>
<path d="M14.5519 33.8965C14.5531 33.9872 14.5337 34.0771 14.4951 34.1592C14.4565 34.2414 14.3998 34.3137 14.3292 34.3708C14.2598 34.4257 14.1846 34.4792 14.1152 34.5299L14.1326 34.5834C14.1543 34.6542 14.1774 34.728 14.2006 34.7945C14.2107 34.8248 14.2193 34.8552 14.2295 34.8856C14.2526 34.955 14.2743 35.023 14.296 35.0909L14.3292 35.1907L14.3943 35.3888L14.429 35.4915C14.4507 35.5551 14.4724 35.6202 14.4955 35.6838L14.5303 35.7879C14.5534 35.853 14.5751 35.9166 14.5968 35.9802C14.6098 36.0149 14.6214 36.0496 14.6329 36.0829C14.6561 36.148 14.6777 36.2116 14.7009 36.2752C14.7139 36.3085 14.7255 36.3418 14.737 36.3765L14.8064 36.5673L14.8455 36.67C14.8677 36.7327 14.8908 36.7948 14.9149 36.8565C14.9265 36.8913 14.9395 36.926 14.9525 36.9607L15.0248 37.1472L15.0638 37.247C15.087 37.3092 15.1116 37.3713 15.1361 37.4335L15.1752 37.5318C15.2012 37.594 15.2258 37.6577 15.2504 37.7198L15.2894 37.8138L15.3675 38.0018C15.3805 38.0336 15.395 38.064 15.408 38.0958C15.434 38.158 15.4601 38.2216 15.4875 38.2838L15.5266 38.372C15.5541 38.4356 15.5815 38.4993 15.6104 38.5629L15.6452 38.6381C15.6741 38.706 15.7044 38.7726 15.7348 38.8391L15.7652 38.9027C15.797 38.9736 15.8302 39.0473 15.8635 39.1138C15.8678 39.1233 15.8726 39.1324 15.878 39.1413C16.0341 39.471 16.198 39.794 16.3696 40.1102L16.4058 40.1781C16.4361 40.2345 16.468 40.2895 16.4998 40.3459L16.5518 40.4399L16.6415 40.5946C16.6603 40.6293 16.6805 40.664 16.7008 40.6972C16.721 40.7305 16.7586 40.7956 16.789 40.8419L16.854 40.9503L16.9408 41.0949L17.0102 41.2063C17.0391 41.2525 17.0695 41.2974 17.0984 41.3422L17.1722 41.4564L17.2604 41.5866L17.337 41.7008L17.4267 41.8295L17.5077 41.9437L17.5988 42.0695L17.6812 42.1823L17.7737 42.3053L17.8605 42.418L17.9545 42.5366L18.0441 42.6494L18.141 42.7665L18.2321 42.8764L18.3319 42.9907C18.3623 43.0283 18.3941 43.0644 18.4259 43.1006L18.5271 43.2134L18.6255 43.3204L18.7281 43.4303C18.7614 43.465 18.7946 43.5011 18.8294 43.5358L18.9335 43.6428C18.9682 43.679 19.0029 43.7137 19.039 43.7484L19.146 43.8525L19.253 43.9552L19.3629 44.0579L19.4728 44.1591L19.5856 44.2589L19.6999 44.3572L19.8141 44.4541L19.9312 44.5524L20.0498 44.6464L20.1698 44.7418L20.2899 44.8344L20.4142 44.9269L20.5371 45.0166L20.6644 45.1077L20.7902 45.1945L20.9218 45.2827L21.0505 45.3665L21.185 45.4533C21.2283 45.4808 21.2717 45.5083 21.3166 45.5343C21.3614 45.5603 21.4077 45.5907 21.4612 45.6182L21.5956 45.6977L21.7402 45.7787L21.8848 45.8553L22.0295 45.9334L22.1741 46.0086L22.3187 46.0838L22.4633 46.1546C22.5139 46.1807 22.5659 46.2038 22.618 46.2284L22.7626 46.2963L22.9217 46.3672L23.0663 46.4337L23.2282 46.5002L23.3815 46.5639L23.5493 46.6289L23.704 46.6882L23.8775 46.7519L24.0351 46.8083L24.213 46.8675L24.3735 46.921L24.5557 46.9774L24.7206 47.028L24.9071 47.0816C24.9635 47.0975 25.0184 47.1148 25.0748 47.1293L25.2686 47.1813L25.4363 47.2247L25.6388 47.2739L25.808 47.3144L26.0177 47.3592L26.1868 47.3968L26.4052 47.4387L26.5744 47.472L26.8115 47.5139L26.9706 47.5428L27.2396 47.5833L27.3755 47.605C27.5129 47.6253 27.6502 47.6441 27.7905 47.6614C28.3681 47.7434 28.9511 47.7816 29.5344 47.7757V47.7757C29.7036 47.7684 29.8714 47.7597 30.0391 47.7496L30.1909 47.7381C30.3066 47.7308 30.4223 47.7236 30.5366 47.7135L30.7101 47.6976C30.8156 47.6889 30.9212 47.6802 31.0268 47.6686L31.2046 47.6498L31.5097 47.6151L31.6818 47.592C31.7845 47.579 31.8857 47.566 31.9869 47.5501L32.1503 47.5255L32.4555 47.4778L32.6102 47.4503L32.9182 47.3939L33.0628 47.3664C33.1669 47.3447 33.271 47.3245 33.3737 47.3013L33.5067 47.2724L33.822 47.2001L33.942 47.1698C34.049 47.1437 34.156 47.1163 34.2616 47.0873L34.3686 47.0584L34.6939 46.9659L34.7879 46.9384L35.1205 46.8328L35.1986 46.8083C35.3129 46.7707 35.4256 46.7316 35.5384 46.6911L35.6021 46.6694C35.7192 46.626 35.8363 46.5827 35.9506 46.5378L35.9954 46.5219C36.1169 46.4742 36.2383 46.425 36.3569 46.3773L36.3815 46.3672C36.5087 46.3123 36.6345 46.2573 36.7589 46.2009C19.4164 49.2593 15.0783 35.8096 14.5519 33.8965Z" fill="#C6C6C6"/>
<path d="M12.2092 18.8779C11.2809 19.5098 10.098 18.2923 9.75093 18.6552C9.40388 19.0182 9.22457 24.2948 10.3655 24.1357C11.2794 24.0041 13.4976 23.1018 14.3161 22.7562C14.2583 22.2284 14.1932 21.702 14.118 21.1959C14.118 21.1959 14.118 21.1843 14.118 21.18C14.1006 21.0643 14.0833 20.9486 14.0645 20.8359L14.0558 20.7823C14.0399 20.6811 14.024 20.5799 14.0067 20.4801C14.0067 20.4584 14.0067 20.4353 13.9951 20.4136C13.9792 20.3167 13.9618 20.2213 13.9445 20.1244L13.9315 20.0593C13.9127 19.9595 13.8939 19.8598 13.8736 19.7629C13.8743 19.7494 13.8743 19.7359 13.8736 19.7224C13.8288 19.5011 13.7811 19.2886 13.729 19.0818C13.729 19.0616 13.7203 19.0442 13.7145 19.0254C13.6958 18.9459 13.6755 18.8678 13.6553 18.7926C13.6466 18.7608 13.6394 18.7319 13.6307 18.7015C13.6133 18.6393 13.596 18.5771 13.5772 18.5164C13.5685 18.4831 13.5584 18.4499 13.5483 18.4181L13.4962 18.2547C13.4861 18.2214 13.4745 18.1896 13.4644 18.1578C13.4543 18.126 13.4282 18.0565 13.4109 18.0132C13.3935 17.9698 13.3892 17.9539 13.3776 17.925C13.3574 17.8729 13.3371 17.8237 13.3169 17.7804C13.3068 17.7572 13.2981 17.7326 13.288 17.7109C13.2576 17.6415 13.2272 17.5663 13.1954 17.5114C13.1636 17.4564 13.1275 17.3812 13.0913 17.3234C13.074 17.2945 13.0566 17.267 13.0392 17.241L12.9886 17.1687L12.98 17.1571L12.9322 17.0964L12.9163 17.0776L12.8773 17.0313L12.8484 17.0038L12.8194 16.9735L12.7602 16.9228C12.7291 16.9056 12.6996 16.8858 12.6719 16.8636L12.6474 16.8433C12.6286 16.826 12.6112 16.8086 12.5939 16.7898C12.5867 16.782 12.5799 16.7738 12.5736 16.7652C12.5522 16.7396 12.5333 16.712 12.5172 16.6828L12.5085 16.664C12.4969 16.6405 12.4868 16.6164 12.4782 16.5917C12.4737 16.5794 12.4698 16.5668 12.4666 16.5541C12.4609 16.5342 12.4565 16.5139 12.4536 16.4934C12.4536 16.4934 12.4536 16.4789 12.4536 16.4717C12.5129 16.9445 13.058 18.3009 12.2092 18.8779Z" fill="#C6C6C6"/>
<path d="M43.6841 2.96407C43.6292 2.89466 43.5713 2.82814 43.5135 2.76162L43.46 2.70234C43.4181 2.65606 43.3761 2.61124 43.3327 2.56641L43.3082 2.54183C43.2968 2.52907 43.2848 2.517 43.272 2.50567C43.2286 2.46085 43.1824 2.41602 43.1361 2.37408C43.1187 2.35818 43.1028 2.34082 43.084 2.32492C43.0233 2.26997 42.9626 2.21502 42.8989 2.16296C42.8295 2.10512 42.7543 2.05017 42.6864 1.99667H42.6791C42.6141 1.9475 42.5475 1.90123 42.4796 1.85206L42.4622 1.83905L42.4463 1.82892L42.2612 1.71324L42.2395 1.70023H42.2309C42.1614 1.65974 42.0862 1.62069 42.0197 1.5831L41.9098 1.52959L41.8896 1.51947L41.8578 1.50501L41.7551 1.46018L41.6929 1.43415L41.596 1.39655L41.5006 1.3633L41.45 1.34594L41.382 1.3257L41.2808 1.29678L41.2128 1.2693H41.1926L41.1217 1.25484H41.1044L41.0494 1.24472C40.9959 1.23604 40.9424 1.22737 40.8889 1.22158C40.3481 1.1623 39.6742 1.2693 39.5354 2.10946C39.265 3.75217 37.6339 4.32625 36.8082 4.4H36.7807L32.5655 4.58509C40.7009 4.49688 39.5759 12.7697 33.5054 13.5781C26.0669 14.5614 13.0279 15.7616 12.9961 15.7862C13.0384 15.7811 13.0811 15.7811 13.1233 15.7862L13.1754 15.7949L13.2159 15.805C13.2492 15.8147 13.2816 15.8273 13.3128 15.8426C13.7954 16.0888 14.3029 16.2827 14.8268 16.421L14.9714 16.4571H14.9931C15.0914 16.4817 15.1926 16.5049 15.2996 16.528H15.3242L15.4819 16.5598L15.6554 16.5916H15.68L15.839 16.6191H15.8636L16.0516 16.648H16.0675L16.2454 16.6726H16.283C16.4146 16.69 16.5534 16.7059 16.6965 16.7218H16.7399C16.8079 16.7305 16.8845 16.7362 16.9467 16.7435H16.9597L17.1925 16.7652H17.2388L17.4456 16.7825H17.4861L17.7362 16.7999H17.7767L18.0009 16.8129H18.0602L18.3335 16.8259H18.3436L18.6154 16.8375H18.6834L18.961 16.8461H18.9784H19.2879H19.3587H19.6306H19.6884H20.0196H20.0875H20.3767H21.2935H21.6608H21.6811H22.0816H22.1886H22.5386H22.6152L23.049 16.8346H23.1517L23.5132 16.8244H23.6274L24.0873 16.81H24.1654L24.5717 16.7941H24.7076L25.2036 16.7738C31.9813 16.4846 36.8328 15.617 40.0357 14.1232C40.4435 13.9304 40.8258 13.7299 41.1825 13.5217L41.2013 13.5101L41.4109 13.3828C41.4514 13.3583 41.4905 13.3322 41.5295 13.3062L41.6466 13.231L41.7638 13.1515C41.8014 13.1269 41.8375 13.1009 41.8737 13.0748C41.9098 13.0488 41.9503 13.0213 41.9879 12.9939L42.0949 12.9158L42.2048 12.8334L42.3075 12.7524L42.4116 12.6685L42.5128 12.5846L42.6126 12.5008L42.7182 12.4068L42.8208 12.3128C42.8743 12.2636 42.9278 12.213 42.9785 12.1682L43.0609 12.0857C43.0927 12.0525 43.1245 12.0207 43.1549 11.9874C43.1852 11.9542 43.2098 11.9296 43.2373 11.9006L43.3241 11.8038L43.4036 11.7141L43.486 11.6158C43.5106 11.5854 43.5366 11.555 43.5598 11.5247L43.6408 11.422L43.7102 11.3309L43.7897 11.2225L43.8504 11.1357C43.8822 11.0909 43.9112 11.0446 43.9415 10.9998L43.9849 10.9347C44.0268 10.8696 44.0673 10.8031 44.1064 10.7366L44.1512 10.6556C44.1758 10.6137 44.2004 10.5703 44.2235 10.5269C44.2466 10.4835 44.2568 10.4662 44.2727 10.4358L44.3349 10.3143C44.3508 10.2825 44.3652 10.2507 44.3797 10.2189C44.3941 10.1871 44.4187 10.1365 44.4375 10.0945C44.4563 10.0526 44.4664 10.0309 44.4795 9.9991C44.4925 9.96728 44.5156 9.91378 44.533 9.8704C44.5503 9.82702 44.559 9.80822 44.5706 9.77641C44.5821 9.74459 44.6067 9.68241 44.6241 9.6318L44.6544 9.54793C44.6776 9.48286 44.6978 9.41779 44.7181 9.35271C44.7226 9.34137 44.7264 9.32978 44.7296 9.31801C44.7542 9.24137 44.7759 9.16328 44.7961 9.08519C44.8034 9.05917 44.8106 9.03169 44.8164 9.00566C44.8309 8.95216 44.8439 8.89865 44.8569 8.84515C44.8641 8.81478 44.8713 8.78297 44.8771 8.75116C44.8829 8.71934 44.8988 8.65138 44.9089 8.60655C44.9191 8.56172 44.9219 8.53859 44.9277 8.50533L44.9538 8.36072C44.9538 8.32746 44.9639 8.29276 44.9697 8.2595L44.9914 8.10333C44.9914 8.07151 44.9914 8.03826 45.0029 8.005C45.0097 7.94812 45.0155 7.89028 45.0203 7.83147L45.029 7.74905C45.0362 7.66228 45.042 7.57552 45.0463 7.48731C45.1605 5.30378 44.3696 3.82013 43.6841 2.96407Z" fill="#C6C6C6"/>
<path d="M14.2368 23.9072L14.2093 23.9158L14.1804 23.9245C14.1038 23.9462 14.0358 23.9722 13.9577 23.9997L13.9403 24.0069H13.9244L5.8526 26.9511C5.84313 27.5377 5.95591 28.1197 6.18375 28.6603C6.19676 28.6878 6.20977 28.7153 6.22424 28.7428L14.9005 25.3156C14.8965 25.3062 14.8931 25.2966 14.8904 25.2867C14.7312 24.77 14.7197 24.219 14.8571 23.696L14.2368 23.9072Z" fill="#1A6DFF"/>
<path d="M4.92822 29.2374C4.68794 28.6978 4.54124 28.1213 4.49441 27.5325L3.8191 27.7797C3.33034 27.9764 3.24068 28.1991 3.20309 28.2728C3.08162 28.5621 3.13512 29.0277 3.34769 29.5627C3.3824 29.6495 3.42288 29.7391 3.46771 29.8274L4.92822 29.2489V29.2374Z" fill="#FBFBFD"/>
<path d="M20.0193 22.4452L17.091 21.8031C16.9812 21.7799 16.8692 21.7683 16.757 21.7684C16.573 21.7689 16.3904 21.7992 16.2162 21.8581L13.8172 22.678C13.7044 22.7098 13.5916 22.7489 13.4802 22.7922L3.32608 26.4883C1.63999 27.1564 1.48092 28.6169 2.0738 30.0774C2.53075 31.2082 3.30294 32.0094 4.40772 32.0094C4.77422 32.0036 5.13631 31.9285 5.47491 31.7881L15.6262 28.092L15.6797 28.0689L18.1249 27.1738C18.4233 27.0662 18.6841 26.8743 18.8754 26.6214L20.6787 24.2021C21.192 23.5124 20.8609 22.6303 20.0193 22.4452ZM3.20606 28.2728C3.23787 28.199 3.33331 27.9763 3.82207 27.7797L4.49738 27.5324C4.54422 28.1212 4.69091 28.6977 4.93119 29.2373L4.93842 29.2517L3.47791 29.8302C3.43309 29.7419 3.3926 29.6523 3.35789 29.5655C3.13809 29.0276 3.08459 28.5576 3.20606 28.2728ZM15.9486 24.9353C15.7896 24.4595 15.9226 23.9447 16.0397 23.6338L17.3658 23.6714C17.3571 23.9116 17.4036 24.1505 17.5017 24.3699C17.6211 24.609 17.7833 24.8241 17.9803 25.0047L16.8972 25.9287C16.5589 25.7393 16.1005 25.3893 15.9486 24.9353ZM13.9242 24.0127H13.9401L13.9574 24.0055C14.0283 23.978 14.102 23.952 14.1801 23.9303L14.209 23.9216L14.2365 23.9129L14.8627 23.6989C14.7252 24.2219 14.7367 24.7728 14.8959 25.2896C14.8986 25.2994 14.902 25.3091 14.906 25.3185L6.22974 28.7456C6.21528 28.7181 6.20227 28.6907 6.18925 28.6632C5.96142 28.1226 5.84864 27.5405 5.85811 26.954L13.9242 24.0127Z" fill="#060B1D"/>
<path d="M17.4973 24.3685C17.3992 24.1491 17.3527 23.9102 17.3613 23.67L16.0353 23.6324C15.9182 23.9448 15.7851 24.4596 15.9442 24.9339C16.1033 25.4082 16.5544 25.7336 16.8928 25.9259L17.9759 25.0019C17.779 24.8217 17.6168 24.6071 17.4973 24.3685Z" fill="#FBFBFD"/>
<path d="M11.3534 35.4119C10.4829 35.4115 9.62912 35.1724 8.8849 34.7208C8.14067 34.2692 7.53445 33.6222 7.13209 32.8502C6.72973 32.0783 6.54662 31.2108 6.60265 30.342C6.65869 29.4733 6.95173 28.6365 7.44994 27.9227C7.94814 27.2088 8.63246 26.6451 9.42854 26.2928C10.2246 25.9405 11.102 25.8132 11.9654 25.9245C12.8288 26.0359 13.6452 26.3817 14.3258 26.9245C15.0064 27.4672 15.5253 28.1861 15.8261 29.0031C15.8532 29.0771 15.8655 29.1558 15.8623 29.2346C15.859 29.3134 15.8403 29.3908 15.8071 29.4624C15.7739 29.534 15.727 29.5983 15.669 29.6517C15.6109 29.7052 15.5429 29.7466 15.4689 29.7738C15.3948 29.801 15.3161 29.8133 15.2373 29.81C15.1585 29.8067 15.0811 29.788 15.0095 29.7548C14.938 29.7217 14.8736 29.6747 14.8202 29.6167C14.7668 29.5587 14.7253 29.4907 14.6981 29.4166C14.455 28.7557 14.0214 28.1817 13.4521 27.7672C12.8828 27.3526 12.2033 27.1162 11.4997 27.0877C10.796 27.0592 10.0997 27.2399 9.49876 27.607C8.8978 27.9742 8.41917 28.5112 8.12337 29.1503C7.82756 29.7894 7.72786 30.5019 7.83686 31.1976C7.94586 31.8934 8.25867 32.5412 8.73575 33.0592C9.21283 33.5772 9.83278 33.9422 10.5172 34.1079C11.2017 34.2737 11.9199 34.2328 12.5811 33.9905C12.9405 33.8591 13.276 33.6701 13.5746 33.4309C13.6362 33.3817 13.7069 33.3451 13.7826 33.3232C13.8584 33.3014 13.9377 33.2947 14.0161 33.3035C14.0944 33.3123 14.1703 33.3364 14.2393 33.3745C14.3083 33.4126 14.3691 33.4639 14.4183 33.5256C14.4675 33.5872 14.5041 33.6579 14.5259 33.7337C14.5478 33.8094 14.5545 33.8887 14.5457 33.9671C14.5369 34.0454 14.5128 34.1213 14.4747 34.1903C14.4366 34.2593 14.3852 34.3202 14.3236 34.3693C13.4784 35.0429 12.4299 35.4104 11.3491 35.4119H11.3534Z" fill="#060B1D"/>
<path d="M10.1225 27.304C9.23577 27.63 8.5149 28.2949 8.11842 29.1524C7.72195 30.0099 7.68235 30.9897 8.00834 31.8764C8.33433 32.7631 8.9992 33.484 9.85669 33.8805C10.7142 34.2769 11.6941 34.3165 12.5807 33.9906C12.9401 33.8592 13.2756 33.6702 13.5742 33.4309C13.6779 33.3486 13.8059 33.3029 13.9383 33.3011C14.0707 33.2992 14.2 33.3413 14.3059 33.4208L14.7397 30.0559C14.7129 29.7358 14.6533 29.4194 14.5618 29.1116C14.1785 28.3128 13.5116 27.6853 12.6909 27.3511C11.8703 27.017 10.9548 27.0002 10.1225 27.304V27.304Z" fill="#FBFBFD"/>
<path d="M12.147 31.901C12.0616 31.87 11.9863 31.8166 11.9287 31.7464C11.8712 31.6761 11.8337 31.5917 11.8202 31.5019C11.8019 31.3245 11.7469 31.1528 11.6588 30.9977C11.5707 30.8427 11.4513 30.7076 11.3083 30.601C11.2034 30.5273 11.0842 30.4763 10.9585 30.4514C10.8327 30.4265 10.7031 30.4282 10.578 30.4564C10.5126 30.4736 10.4445 30.4774 10.3776 30.4677C10.3107 30.458 10.2464 30.435 10.1886 30.4C10.1308 30.365 10.0806 30.3187 10.041 30.2639C10.0014 30.2092 9.9732 30.147 9.95809 30.0811C9.94298 30.0152 9.94125 29.947 9.95302 29.8804C9.96478 29.8139 9.98979 29.7503 10.0266 29.6936C10.0634 29.6369 10.1112 29.5882 10.1671 29.5503C10.2231 29.5124 10.2861 29.4862 10.3524 29.4731C10.6126 29.4119 10.8827 29.4061 11.1452 29.4559C11.4078 29.5057 11.6569 29.6101 11.8766 29.7623C12.1359 29.9471 12.3537 30.1841 12.5161 30.458C12.6785 30.7319 12.7818 31.0368 12.8194 31.353C12.8299 31.4189 12.8271 31.4863 12.8114 31.5512C12.7956 31.616 12.7671 31.6772 12.7276 31.731C12.6881 31.7847 12.6382 31.8302 12.581 31.8646C12.5238 31.899 12.4603 31.9217 12.3943 31.9314C12.3106 31.9427 12.2254 31.9322 12.147 31.901Z" fill="#060B1D"/>
<path d="M73.6105 23.0981C72.8919 23.0981 72.2479 22.9814 71.6785 22.7481C71.1092 22.5147 70.6519 22.1694 70.3065 21.7121C69.9705 21.2547 69.7932 20.7041 69.7745 20.0601H72.3225C72.3599 20.4241 72.4859 20.7041 72.7005 20.9001C72.9152 21.0867 73.1952 21.1801 73.5405 21.1801C73.8952 21.1801 74.1752 21.1007 74.3805 20.9421C74.5859 20.7741 74.6885 20.5454 74.6885 20.2561C74.6885 20.0134 74.6045 19.8127 74.4365 19.6541C74.2779 19.4954 74.0772 19.3647 73.8345 19.2621C73.6012 19.1594 73.2652 19.0427 72.8265 18.9121C72.1919 18.7161 71.6739 18.5201 71.2725 18.3241C70.8712 18.1281 70.5259 17.8387 70.2365 17.4561C69.9472 17.0734 69.8025 16.5741 69.8025 15.9581C69.8025 15.0434 70.1339 14.3294 70.7965 13.8161C71.4592 13.2934 72.3225 13.0321 73.3865 13.0321C74.4692 13.0321 75.3419 13.2934 76.0045 13.8161C76.6672 14.3294 77.0219 15.0481 77.0685 15.9721H74.4785C74.4599 15.6547 74.3432 15.4074 74.1285 15.2301C73.9139 15.0434 73.6385 14.9501 73.3025 14.9501C73.0132 14.9501 72.7799 15.0294 72.6025 15.1881C72.4252 15.3374 72.3365 15.5567 72.3365 15.8461C72.3365 16.1634 72.4859 16.4107 72.7845 16.5881C73.0832 16.7654 73.5499 16.9567 74.1845 17.1621C74.8192 17.3767 75.3325 17.5821 75.7245 17.7781C76.1259 17.9741 76.4712 18.2587 76.7605 18.6321C77.0499 19.0054 77.1945 19.4861 77.1945 20.0741C77.1945 20.6341 77.0499 21.1427 76.7605 21.6001C76.4805 22.0574 76.0699 22.4214 75.5285 22.6921C74.9872 22.9627 74.3479 23.0981 73.6105 23.0981ZM78.1918 19.0801C78.1918 18.2774 78.3411 17.5727 78.6398 16.9661C78.9478 16.3594 79.3631 15.8927 79.8858 15.5661C80.4085 15.2394 80.9918 15.0761 81.6358 15.0761C82.1865 15.0761 82.6671 15.1881 83.0778 15.4121C83.4978 15.6361 83.8198 15.9301 84.0438 16.2941V15.1881H86.4378V23.0001H84.0438V21.8941C83.8105 22.2581 83.4838 22.5521 83.0638 22.7761C82.6531 23.0001 82.1725 23.1121 81.6218 23.1121C80.9871 23.1121 80.4085 22.9487 79.8858 22.6221C79.3631 22.2861 78.9478 21.8147 78.6398 21.2081C78.3411 20.5921 78.1918 19.8827 78.1918 19.0801ZM84.0438 19.0941C84.0438 18.4967 83.8758 18.0254 83.5398 17.6801C83.2131 17.3347 82.8118 17.1621 82.3358 17.1621C81.8598 17.1621 81.4538 17.3347 81.1178 17.6801C80.7911 18.0161 80.6278 18.4827 80.6278 19.0801C80.6278 19.6774 80.7911 20.1534 81.1178 20.5081C81.4538 20.8534 81.8598 21.0261 82.3358 21.0261C82.8118 21.0261 83.2131 20.8534 83.5398 20.5081C83.8758 20.1627 84.0438 19.6914 84.0438 19.0941ZM98.1378 15.1041C99.1084 15.1041 99.8784 15.3981 100.448 15.9861C101.026 16.5741 101.316 17.3907 101.316 18.4361V23.0001H98.9358V18.7581C98.9358 18.2541 98.8004 17.8667 98.5298 17.5961C98.2684 17.3161 97.9044 17.1761 97.4378 17.1761C96.9711 17.1761 96.6024 17.3161 96.3318 17.5961C96.0704 17.8667 95.9398 18.2541 95.9398 18.7581V23.0001H93.5598V18.7581C93.5598 18.2541 93.4244 17.8667 93.1538 17.5961C92.8924 17.3161 92.5284 17.1761 92.0618 17.1761C91.5951 17.1761 91.2264 17.3161 90.9558 17.5961C90.6944 17.8667 90.5638 18.2541 90.5638 18.7581V23.0001H88.1698V15.1881H90.5638V16.1681C90.8064 15.8414 91.1238 15.5847 91.5158 15.3981C91.9078 15.2021 92.3511 15.1041 92.8458 15.1041C93.4338 15.1041 93.9564 15.2301 94.4138 15.4821C94.8804 15.7341 95.2444 16.0934 95.5058 16.5601C95.7764 16.1307 96.1451 15.7807 96.6118 15.5101C97.0784 15.2394 97.5871 15.1041 98.1378 15.1041ZM110.704 15.1881V23.0001H108.31V21.9361C108.067 22.2814 107.736 22.5614 107.316 22.7761C106.905 22.9814 106.448 23.0841 105.944 23.0841C105.347 23.0841 104.819 22.9534 104.362 22.6921C103.905 22.4214 103.55 22.0341 103.298 21.5301C103.046 21.0261 102.92 20.4334 102.92 19.7521V15.1881H105.3V19.4301C105.3 19.9527 105.435 20.3587 105.706 20.6481C105.977 20.9374 106.341 21.0821 106.798 21.0821C107.265 21.0821 107.633 20.9374 107.904 20.6481C108.175 20.3587 108.31 19.9527 108.31 19.4301V15.1881H110.704ZM119.788 18.9681C119.788 19.1921 119.774 19.4254 119.746 19.6681H114.328C114.365 20.1534 114.519 20.5267 114.79 20.7881C115.07 21.0401 115.41 21.1661 115.812 21.1661C116.409 21.1661 116.824 20.9141 117.058 20.4101H119.606C119.475 20.9234 119.237 21.3854 118.892 21.7961C118.556 22.2067 118.131 22.5287 117.618 22.7621C117.104 22.9954 116.53 23.1121 115.896 23.1121C115.13 23.1121 114.449 22.9487 113.852 22.6221C113.254 22.2954 112.788 21.8287 112.452 21.2221C112.116 20.6154 111.948 19.9061 111.948 19.0941C111.948 18.2821 112.111 17.5727 112.438 16.9661C112.774 16.3594 113.24 15.8927 113.838 15.5661C114.435 15.2394 115.121 15.0761 115.896 15.0761C116.652 15.0761 117.324 15.2347 117.912 15.5521C118.5 15.8694 118.957 16.3221 119.284 16.9101C119.62 17.4981 119.788 18.1841 119.788 18.9681ZM117.338 18.3381C117.338 17.9274 117.198 17.6007 116.918 17.3581C116.638 17.1154 116.288 16.9941 115.868 16.9941C115.466 16.9941 115.126 17.1107 114.846 17.3441C114.575 17.5774 114.407 17.9087 114.342 18.3381H117.338ZM123.445 12.6401V23.0001H121.051V12.6401H123.445ZM72.4065 29.1721V35.0521C72.4065 35.6401 72.5512 36.0927 72.8405 36.4101C73.1299 36.7274 73.5545 36.8861 74.1145 36.8861C74.6745 36.8861 75.1039 36.7274 75.4025 36.4101C75.7012 36.0927 75.8505 35.6401 75.8505 35.0521V29.1721H78.2445V35.0381C78.2445 35.9154 78.0579 36.6574 77.6845 37.2641C77.3112 37.8707 76.8072 38.3281 76.1725 38.6361C75.5472 38.9441 74.8472 39.0981 74.0725 39.0981C73.2979 39.0981 72.6025 38.9487 71.9865 38.6501C71.3799 38.3421 70.8992 37.8847 70.5445 37.2781C70.1899 36.6621 70.0125 35.9154 70.0125 35.0381V29.1721H72.4065ZM82.3196 32.4901C82.5996 32.0607 82.9496 31.7247 83.3696 31.4821C83.7896 31.2301 84.2563 31.1041 84.7696 31.1041V33.6381H84.1116C83.5143 33.6381 83.0663 33.7687 82.7676 34.0301C82.4689 34.2821 82.3196 34.7301 82.3196 35.3741V39.0001H79.9256V31.1881H82.3196V32.4901ZM88.3079 32.2941C88.5319 31.9301 88.8539 31.6361 89.2739 31.4121C89.6939 31.1881 90.1746 31.0761 90.7159 31.0761C91.3599 31.0761 91.9432 31.2394 92.4659 31.5661C92.9886 31.8927 93.3992 32.3594 93.6979 32.9661C94.0059 33.5727 94.1599 34.2774 94.1599 35.0801C94.1599 35.8827 94.0059 36.5921 93.6979 37.2081C93.3992 37.8147 92.9886 38.2861 92.4659 38.6221C91.9432 38.9487 91.3599 39.1121 90.7159 39.1121C90.1652 39.1121 89.6846 39.0047 89.2739 38.7901C88.8632 38.5661 88.5412 38.2721 88.3079 37.9081V39.0001H85.9139V28.6401H88.3079V32.2941ZM91.7239 35.0801C91.7239 34.4827 91.5559 34.0161 91.2199 33.6801C90.8932 33.3347 90.4872 33.1621 90.0019 33.1621C89.5259 33.1621 89.1199 33.3347 88.7839 33.6801C88.4572 34.0254 88.2939 34.4967 88.2939 35.0941C88.2939 35.6914 88.4572 36.1627 88.7839 36.5081C89.1199 36.8534 89.5259 37.0261 90.0019 37.0261C90.4779 37.0261 90.8839 36.8534 91.2199 36.5081C91.5559 36.1534 91.7239 35.6774 91.7239 35.0801ZM96.6198 30.3761C96.1998 30.3761 95.8545 30.2547 95.5838 30.0121C95.3225 29.7601 95.1918 29.4521 95.1918 29.0881C95.1918 28.7147 95.3225 28.4067 95.5838 28.1641C95.8545 27.9121 96.1998 27.7861 96.6198 27.7861C97.0305 27.7861 97.3665 27.9121 97.6278 28.1641C97.8985 28.4067 98.0338 28.7147 98.0338 29.0881C98.0338 29.4521 97.8985 29.7601 97.6278 30.0121C97.3665 30.2547 97.0305 30.3761 96.6198 30.3761ZM97.8098 31.1881V39.0001H95.4158V31.1881H97.8098ZM104.305 31.1041C105.219 31.1041 105.947 31.4027 106.489 32.0001C107.039 32.5881 107.315 33.4001 107.315 34.4361V39.0001H104.935V34.7581C104.935 34.2354 104.799 33.8294 104.529 33.5401C104.258 33.2507 103.894 33.1061 103.437 33.1061C102.979 33.1061 102.615 33.2507 102.345 33.5401C102.074 33.8294 101.939 34.2354 101.939 34.7581V39.0001H99.5447V31.1881H101.939V32.2241C102.181 31.8787 102.508 31.6081 102.919 31.4121C103.329 31.2067 103.791 31.1041 104.305 31.1041ZM108.502 35.0801C108.502 34.2774 108.652 33.5727 108.95 32.9661C109.258 32.3594 109.674 31.8927 110.196 31.5661C110.719 31.2394 111.302 31.0761 111.946 31.0761C112.497 31.0761 112.978 31.1881 113.388 31.4121C113.808 31.6361 114.13 31.9301 114.354 32.2941V31.1881H116.748V39.0001H114.354V37.8941C114.121 38.2581 113.794 38.5521 113.374 38.7761C112.964 39.0001 112.483 39.1121 111.932 39.1121C111.298 39.1121 110.719 38.9487 110.196 38.6221C109.674 38.2861 109.258 37.8147 108.95 37.2081C108.652 36.5921 108.502 35.8827 108.502 35.0801ZM114.354 35.0941C114.354 34.4967 114.186 34.0254 113.85 33.6801C113.524 33.3347 113.122 33.1621 112.646 33.1621C112.17 33.1621 111.764 33.3347 111.428 33.6801C111.102 34.0161 110.938 34.4827 110.938 35.0801C110.938 35.6774 111.102 36.1534 111.428 36.5081C111.764 36.8534 112.17 37.0261 112.646 37.0261C113.122 37.0261 113.524 36.8534 113.85 36.5081C114.186 36.1627 114.354 35.6914 114.354 35.0941Z" fill="white"/>
<path d="M119.6 39.1121C119.18 39.1121 118.835 38.9907 118.564 38.7481C118.303 38.4961 118.172 38.1881 118.172 37.8241C118.172 37.4507 118.303 37.1381 118.564 36.8861C118.835 36.6341 119.18 36.5081 119.6 36.5081C120.011 36.5081 120.347 36.6341 120.608 36.8861C120.879 37.1381 121.014 37.4507 121.014 37.8241C121.014 38.1881 120.879 38.4961 120.608 38.7481C120.347 38.9907 120.011 39.1121 119.6 39.1121Z" fill="#1A6DFF"/>
</svg>
